<?xml version="1.0" encoding="UTF-8"?><svg id="Layer_2" xmlns="http://www.w3.org/2000/svg" viewBox="0 0 358.6 145"><defs><style>.cls-1{fill:#e10920;}</style></defs><g id="layer"><path class="cls-1" d="M116.8,49.6h36.4v94.1h-36.4V49.6ZM218.4,49.9v-15c-7.6,0-14.3,6.7-14.3,15h14.3ZM274.9,34.8c-7.7,0-21.1,2.8-21.1,14.8h10.3v36.7h-10.3v57.3h-36.4v-57.3h-13.5v57.3h-36.4v-57.3h-8.6v-36.7h8.6C167.5,37.8,176.4,0,224.2,0v22.8c4.3-11.6,17-22.8,50.7-22.8v34.8h0ZM310.2,111.2c7.1,0,12.9-5.8,12.9-12.9s-5.8-12.9-12.9-12.9-12.9,5.8-12.9,12.9,5.8,12.9,12.9,12.9M310.2,49.6c26.6,0,48.4,21.6,48.4,48.2v45.9h-34v-3.2c-5.6,2.9-11.9,4.5-18.7,4.5-22,0-39.9-17.5-39.9-39.1,0-7.1,2-13.8,5.4-19.6h-3v-36.7h41.8ZM58,108c7.4,0,14.5-6.7,14.5-14.9s-7.1-14.8-14.5-14.8h-23.1v29.7h23.1ZM35,50h19.3c5.4,0,10.5-4.8,10.5-10.7s-5.1-10.8-10.5-10.8h-19.3v21.5ZM93.3,53.8c11.1,9.3,18.1,23.3,18.1,38.9,0,28.1-22.8,50.9-50.9,50.9H0V1h58.3c21,0,38.1,17,38.1,38-.1,5.3-1.2,10.3-3.1,14.8M158.9,23.9C158.9,10.7,148.2.1,135.1.1s-23.8,10.7-23.8,23.8,10.7,23.8,23.8,23.8c13.1.1,23.8-10.6,23.8-23.8"/></g></svg>