<?xml version="1.0" encoding="UTF-8" standalone="no"?>
<!-- Created with Inkscape (http://www.inkscape.org/) -->

<svg
   xmlns:dc="http://purl.org/dc/elements/1.1/"
   xmlns:cc="http://creativecommons.org/ns#"
   xmlns:rdf="http://www.w3.org/1999/02/22-rdf-syntax-ns#"
   xmlns:svg="http://www.w3.org/2000/svg"
   xmlns="http://www.w3.org/2000/svg"
   xmlns:sodipodi="http://sodipodi.sourceforge.net/DTD/sodipodi-0.dtd"
   xmlns:inkscape="http://www.inkscape.org/namespaces/inkscape"
   width="118.45787"
   height="29.69512"
   viewBox="0 0 31.341977 7.8568337"
   version="1.1"
   id="svg11713"
   inkscape:version="0.92.0 r15299"
   sodipodi:docname="electricity north west.svg">
  <defs
     id="defs11707">
    <linearGradient
       id="linearGradient5862"
       spreadMethod="pad"
       gradientTransform="matrix(0,-3.2996709,3.2996709,0,102.84516,157.58961)"
       gradientUnits="userSpaceOnUse"
       y2="0"
       x2="1"
       y1="0"
       x1="0">
      <stop
         id="stop5858"
         offset="0"
         style="stop-opacity:1;stop-color:#2979be" />
      <stop
         id="stop5860"
         offset="1"
         style="stop-opacity:1;stop-color:#93b4dd" />
    </linearGradient>
    <linearGradient
       id="linearGradient5842"
       spreadMethod="pad"
       gradientTransform="matrix(1.3945995,1.3945995,-1.3945995,1.3945995,104.64898,155.18038)"
       gradientUnits="userSpaceOnUse"
       y2="0"
       x2="1"
       y1="0"
       x1="0">
      <stop
         id="stop5838"
         offset="0"
         style="stop-opacity:1;stop-color:#f3b600" />
      <stop
         id="stop5840"
         offset="1"
         style="stop-opacity:1;stop-color:#ed8e00" />
    </linearGradient>
    <linearGradient
       id="linearGradient5822"
       spreadMethod="pad"
       gradientTransform="matrix(0,-6.0112214,6.0112214,0,104.24191,158.00603)"
       gradientUnits="userSpaceOnUse"
       y2="0"
       x2="1"
       y1="0"
       x1="0">
      <stop
         id="stop5818"
         offset="0"
         style="stop-opacity:1;stop-color:#277cc0" />
      <stop
         id="stop5820"
         offset="1"
         style="stop-opacity:1;stop-color:#b0c4e7" />
    </linearGradient>
    <linearGradient
       id="linearGradient5802"
       spreadMethod="pad"
       gradientTransform="matrix(2.7118779,2.7118779,-2.7118779,2.7118779,105.40988,153.96738)"
       gradientUnits="userSpaceOnUse"
       y2="0"
       x2="1"
       y1="0"
       x1="0">
      <stop
         id="stop5798"
         offset="0"
         style="stop-opacity:1;stop-color:#fccd00" />
      <stop
         id="stop5800"
         offset="1"
         style="stop-opacity:1;stop-color:#ef9500" />
    </linearGradient>
    <clipPath
       id="clipPath5712"
       clipPathUnits="userSpaceOnUse">
      <path
         inkscape:connector-curvature="0"
         id="path5710"
         d="m 112.242,292.597 h 63.517 v 38.021 h -63.517 z" />
    </clipPath>
    <linearGradient
       id="linearGradient5702"
       spreadMethod="pad"
       gradientTransform="matrix(4.8537039,-4.8537039,4.8537039,4.8537039,99.557099,158.26435)"
       gradientUnits="userSpaceOnUse"
       y2="0"
       x2="1"
       y1="0"
       x1="0">
      <stop
         id="stop5698"
         offset="0"
         style="stop-opacity:1;stop-color:#629734" />
      <stop
         id="stop5700"
         offset="1"
         style="stop-opacity:1;stop-color:#c3cc17" />
    </linearGradient>
    <clipPath
       id="clipPath5680"
       clipPathUnits="userSpaceOnUse">
      <path
         inkscape:connector-curvature="0"
         id="path5678"
         d="m 112.242,292.597 h 63.517 v 38.021 h -63.517 z" />
    </clipPath>
    <linearGradient
       id="linearGradient5670"
       spreadMethod="pad"
       gradientTransform="matrix(1.5724541,1.2285358,-1.2285358,1.5724541,101.0519,154.21906)"
       gradientUnits="userSpaceOnUse"
       y2="0"
       x2="1"
       y1="0"
       x1="0">
      <stop
         id="stop5666"
         offset="0"
         style="stop-opacity:1;stop-color:#8ead26" />
      <stop
         id="stop5668"
         offset="1"
         style="stop-opacity:1;stop-color:#629734" />
    </linearGradient>
    <linearGradient
       id="linearGradient5862-2"
       spreadMethod="pad"
       gradientTransform="matrix(0,9.3533979,9.3533979,0,120.52995,314.64368)"
       gradientUnits="userSpaceOnUse"
       y2="0"
       x2="1"
       y1="0"
       x1="0">
      <stop
         id="stop5858-4"
         offset="0"
         style="stop-opacity:1;stop-color:#2979be" />
      <stop
         id="stop5860-7"
         offset="1"
         style="stop-opacity:1;stop-color:#93b4dd" />
    </linearGradient>
    <linearGradient
       id="linearGradient5842-3"
       spreadMethod="pad"
       gradientTransform="matrix(3.9531954,-3.9531954,-3.9531954,-3.9531954,125.64313,321.47301)"
       gradientUnits="userSpaceOnUse"
       y2="0"
       x2="1"
       y1="0"
       x1="0">
      <stop
         id="stop5838-1"
         offset="0"
         style="stop-opacity:1;stop-color:#f3b600" />
      <stop
         id="stop5840-0"
         offset="1"
         style="stop-opacity:1;stop-color:#ed8e00" />
    </linearGradient>
    <linearGradient
       id="linearGradient5822-1"
       spreadMethod="pad"
       gradientTransform="matrix(0,17.039683,17.039683,0,124.48923,313.46329)"
       gradientUnits="userSpaceOnUse"
       y2="0"
       x2="1"
       y1="0"
       x1="0">
      <stop
         id="stop5818-6"
         offset="0"
         style="stop-opacity:1;stop-color:#277cc0" />
      <stop
         id="stop5820-5"
         offset="1"
         style="stop-opacity:1;stop-color:#b0c4e7" />
    </linearGradient>
    <linearGradient
       id="linearGradient5802-4"
       spreadMethod="pad"
       gradientTransform="matrix(7.6872132,-7.6872132,-7.6872132,-7.6872132,127.80002,324.91144)"
       gradientUnits="userSpaceOnUse"
       y2="0"
       x2="1"
       y1="0"
       x1="0">
      <stop
         id="stop5798-0"
         offset="0"
         style="stop-opacity:1;stop-color:#fccd00" />
      <stop
         id="stop5800-7"
         offset="1"
         style="stop-opacity:1;stop-color:#ef9500" />
    </linearGradient>
    <clipPath
       id="clipPath5712-4"
       clipPathUnits="userSpaceOnUse">
      <path
         inkscape:connector-curvature="0"
         id="path5710-2"
         d="m 112.242,292.597 h 63.517 v 38.021 h -63.517 z" />
    </clipPath>
    <linearGradient
       id="linearGradient5702-8"
       spreadMethod="pad"
       gradientTransform="matrix(13.758531,13.758531,13.758531,-13.758531,111.20945,312.73104)"
       gradientUnits="userSpaceOnUse"
       y2="0"
       x2="1"
       y1="0"
       x1="0">
      <stop
         id="stop5698-0"
         offset="0"
         style="stop-opacity:1;stop-color:#629734" />
      <stop
         id="stop5700-0"
         offset="1"
         style="stop-opacity:1;stop-color:#c3cc17" />
    </linearGradient>
    <clipPath
       id="clipPath5680-0"
       clipPathUnits="userSpaceOnUse">
      <path
         inkscape:connector-curvature="0"
         id="path5678-9"
         d="m 112.242,292.597 h 63.517 v 38.021 h -63.517 z" />
    </clipPath>
    <linearGradient
       id="linearGradient5670-7"
       spreadMethod="pad"
       gradientTransform="matrix(4.4573504,-3.4824639,-3.4824639,-4.4573504,115.44669,324.19802)"
       gradientUnits="userSpaceOnUse"
       y2="0"
       x2="1"
       y1="0"
       x1="0">
      <stop
         id="stop5666-6"
         offset="0"
         style="stop-opacity:1;stop-color:#8ead26" />
      <stop
         id="stop5668-4"
         offset="1"
         style="stop-opacity:1;stop-color:#629734" />
    </linearGradient>
    <clipPath
       id="clipPath5884"
       clipPathUnits="userSpaceOnUse">
      <path
         inkscape:connector-curvature="0"
         id="path5882"
         d="M 0,0 H 595.276 V 841.89 H 0 Z" />
    </clipPath>
  </defs>
  <sodipodi:namedview
     id="base"
     pagecolor="#ffffff"
     bordercolor="#666666"
     borderopacity="1.0"
     inkscape:pageopacity="0.0"
     inkscape:pageshadow="2"
     inkscape:zoom="7.6293504"
     inkscape:cx="60.655565"
     inkscape:cy="6.0861924"
     inkscape:document-units="mm"
     inkscape:current-layer="layer1"
     showgrid="false"
     fit-margin-top="0"
     fit-margin-left="0"
     fit-margin-right="0"
     fit-margin-bottom="0"
     units="px"
     inkscape:window-width="1280"
     inkscape:window-height="744"
     inkscape:window-x="-4"
     inkscape:window-y="-4"
     inkscape:window-maximized="1" />
  <metadata
     id="metadata11710">
    <rdf:RDF>
      <cc:Work
         rdf:about="">
        <dc:format>image/svg+xml</dc:format>
        <dc:type
           rdf:resource="http://purl.org/dc/dcmitype/StillImage" />
        <dc:title></dc:title>
      </cc:Work>
    </rdf:RDF>
  </metadata>
  <g
     inkscape:label="Layer 1"
     inkscape:groupmode="layer"
     id="layer1"
     transform="translate(-94.593526,-147.08629)">
    <g
       id="g12997"
       transform="translate(0.13229212,-0.13228818)">
      <path
         d="m 104.62286,153.65148 c 0,-0.37994 -0.32985,-0.68721 -0.7366,-0.68721 h -1.43757 c -0.0155,0 -0.0286,0.006 -0.0392,0.0145 -0.009,0.009 -0.0155,0.0215 -0.0155,0.0346 v 1.86513 c 0,0.013 0.006,0.0268 0.0155,0.036 0.0106,0.008 0.0236,0.0145 0.0392,0.0145 h 0.56445 c 0.0137,0 0.0268,-0.006 0.037,-0.0145 0.0102,-0.009 0.0141,-0.0208 0.0141,-0.036 v -1.60937 h 0.51964 0.001 c 0.10795,0 0.19756,0.0236 0.27235,0.0741 0.0815,0.0543 0.12382,0.13018 0.12382,0.22331 v 0.16651 c 0,0.0138 0.005,0.0265 0.0159,0.0342 0.008,0.009 0.0226,0.0148 0.0374,0.0148 h 0.53657 c 0.0145,0 0.0265,-0.006 0.0374,-0.0148 0.0106,-0.008 0.0141,-0.0205 0.0141,-0.0342 z"
         style="fill:#76b82a;fill-opacity:1;fill-rule:nonzero;stroke:none;stroke-width:0.35277778"
         id="path5888"
         inkscape:connector-curvature="0" />
      <path
         d="m 98.382748,152.96797 h -0.0042 -0.06491 -0.0018 -1.789642 c -0.01623,0 -0.02928,0.003 -0.03881,0.0134 -0.01164,0.01 -0.01799,0.0226 -0.01799,0.0367 v 0.23672 0.21237 1.41005 c 0,0.0141 0.0063,0.0268 0.01658,0.036 0.0095,0.009 0.02399,0.0155 0.0381,0.0155 h 0.518936 c 0.01517,0 0.02787,-0.006 0.03951,-0.0155 0.01058,-0.009 0.01587,-0.0219 0.01587,-0.036 v -1.41005 -0.17851 h 0.985308 0.0575 c 0.100894,0.001 0.183091,0.024 0.244122,0.0699 0.07197,0.0515 0.109714,0.12524 0.109714,0.21132 v 1.05445 0.25294 c 0,0.0141 0.006,0.0268 0.01588,0.036 0.01164,0.009 0.02434,0.0155 0.03986,0.0155 h 0.517172 c 0.01552,0 0.02928,-0.006 0.03916,-0.0155 0.01094,-0.009 0.01623,-0.0219 0.01623,-0.036 v -0.32702 -0.64488 -0.25294 c 0,-0.37818 -0.331258,-0.68439 -0.7366,-0.68439"
         style="fill:#76b82a;fill-opacity:1;fill-rule:nonzero;stroke:none;stroke-width:0.35277778"
         id="path5892"
         inkscape:connector-curvature="0" />
      <path
         d="m 102.08039,153.65412 c -3.5e-4,-0.37782 -0.3302,-0.68615 -0.7366,-0.68615 h -0.002 -0.067 -0.0243 -1.767415 c -0.01411,0 -0.02858,0.003 -0.03916,0.0134 -0.0088,0.01 -0.01446,0.0226 -0.01446,0.0367 v 0.63324 0.8957 c 0,0.26176 0.294217,0.38171 0.614885,0.38171 h 0.004 0.006 l 1.31939,-0.002 0.65299,0.002 c 0.0152,0 0.0289,-0.006 0.0402,-0.0155 0.0102,-0.009 0.0145,-0.0219 0.0145,-0.036 v -0.3235 z m -0.58596,0.96696 h -1.06751 c -0.10019,-0.001 -0.18627,-0.0198 -0.25435,-0.0656 -0.0762,-0.0515 -0.11607,-0.12524 -0.11712,-0.21308 v -1.05375 h 1.02799 0.0561 c 0.1009,0.001 0.1845,0.024 0.24624,0.0699 0.0709,0.0515 0.10866,0.12524 0.10866,0.21096 z"
         style="fill:#76b82a;fill-opacity:1;fill-rule:nonzero;stroke:none;stroke-width:0.35277778"
         id="path5896"
         inkscape:connector-curvature="0" />
      <path
         d="m 108.23844,152.96554 h -1.21109 v -0.56444 c 0,-0.0145 -0.006,-0.0279 -0.019,-0.0374 -0.012,-0.009 -0.0289,-0.013 -0.0434,-0.01 l -0.52669,0.11325 c -0.0251,0.004 -0.0413,0.0226 -0.0413,0.0469 v 0.45156 0.32067 1.5935 c 0,0.0138 0.005,0.0258 0.0155,0.0346 0.008,0.008 0.0226,0.0145 0.0356,0.0145 h 0.52811 c 0.013,0 0.0265,-0.006 0.036,-0.0145 0.01,-0.009 0.0152,-0.0208 0.0152,-0.0346 v -1.5935 h 0.96767 c 0.0251,0.001 0.049,0.004 0.0709,0.006 0.0624,0.009 0.12171,0.0321 0.17357,0.067 0.0705,0.0452 0.10548,0.11042 0.10548,0.18873 v 1.33209 c 0,0.0138 0.007,0.0258 0.0166,0.0346 0.0109,0.008 0.0236,0.0145 0.0367,0.0145 h 0.52564 c 0.0131,0 0.0272,-0.006 0.037,-0.0145 0.009,-0.009 0.0152,-0.0208 0.0152,-0.0346 v -1.22731 c -0.001,-0.37747 -0.33126,-0.68686 -0.73766,-0.68686"
         style="fill:#76b82a;fill-opacity:1;fill-rule:nonzero;stroke:none;stroke-width:0.35277778"
         id="path5900"
         inkscape:connector-curvature="0" />
      <path
         d="m 114.14789,152.98508 c -0.0109,-0.009 -0.0258,-0.0148 -0.0402,-0.0148 h -0.51964 c -0.0159,0 -0.03,0.006 -0.0402,0.0148 -0.0109,0.0102 -0.0169,0.0233 -0.0169,0.0377 v 1.41746 0.18062 h -0.69497 v -0.18062 -1.41746 c 0,-0.0145 -0.005,-0.0275 -0.0166,-0.0377 -0.01,-0.009 -0.0243,-0.0148 -0.0388,-0.0148 h -0.51999 c -0.0159,0 -0.03,0.006 -0.0406,0.0148 -0.009,0.0102 -0.0159,0.0233 -0.0159,0.0377 v 1.41746 0.17921 h -0.41416 -0.0564 c -0.10266,-7.1e-4 -0.18345,-0.0229 -0.24695,-0.0709 -0.0713,-0.0504 -0.11006,-0.12382 -0.11041,-0.21167 v -1.06186 -0.25223 c 0,-0.0145 -0.005,-0.0275 -0.0159,-0.0377 -0.0102,-0.009 -0.0247,-0.0148 -0.0392,-0.0148 h -0.52035 c -0.0159,0 -0.0286,0.006 -0.0402,0.0148 -0.009,0.0102 -0.0162,0.0233 -0.0162,0.0377 v 0.32773 0.64946 0.25259 c 0,0.38135 0.33196,0.69003 0.74224,0.69003 h 0.002 0.0667 0.002 0.64664 0.57503 1.32785 c 0.0145,0 0.0293,-0.006 0.0392,-0.0138 0.009,-0.0109 0.0155,-0.025 0.0155,-0.0374 v -0.23812 -0.21308 -1.41746 c 0,-0.0145 -0.006,-0.0275 -0.0145,-0.0377"
         style="fill:#76b82a;fill-opacity:1;fill-rule:nonzero;stroke:none;stroke-width:0.35277778"
         id="path5904"
         inkscape:connector-curvature="0" />
      <path
         d="m 117.20062,152.98388 c -0.009,-0.008 -0.0233,-0.0134 -0.0356,-0.0134 h -1.87995 -0.003 -0.0656 -0.002 c -0.41028,0 -0.7433,0.30833 -0.7433,0.69004 v 0.127 0.77258 c 0,0.26176 0.29774,0.38241 0.62088,0.38241 h 0.002 0.006 l 1.38112,-0.002 h 0.68016 c 0.0222,0 0.0406,-0.0113 0.049,-0.03 0.009,-0.0166 0.004,-0.0381 -0.01,-0.0536 l -0.22437,-0.22013 c -0.009,-0.01 -0.0219,-0.0152 -0.0363,-0.0152 h -1.56069 c -0.16792,0 -0.2794,-0.1464 -0.2794,-0.30162 l -0.001,-0.21873 h 1.67746 c 0.14887,-10e-4 0.25929,-0.0321 0.33761,-0.0938 l 0.004,-0.006 c 0.0656,-0.0681 0.0963,-0.15276 0.0963,-0.25365 v -0.7299 c 0,-0.0131 -0.006,-0.0243 -0.0134,-0.0332 m -0.86536,0.75812 h -0.1577 -0.96625 -0.10725 v -0.14676 c 0,-0.16615 0.14394,-0.30233 0.32244,-0.30233 h 0.12136 0.003 0.96696 0.004 0.13653 l -0.001,0.26811 c -0.008,0.1584 -0.14993,0.18098 -0.32173,0.18098"
         style="fill:#76b82a;fill-opacity:1;fill-rule:nonzero;stroke:none;stroke-width:0.35277778"
         id="path5908"
         inkscape:connector-curvature="0" />
      <path
         d="m 105.82872,154.62105 c -0.13794,0 -0.2607,-0.0797 -0.2607,-0.29457 v -0.002 -1.03646 h 0.30621 c 0.0134,0 0.0279,-0.005 0.037,-0.0141 0.0116,-0.01 0.0169,-0.0219 0.0169,-0.0339 v -0.22331 c 0,-0.0137 -0.005,-0.0261 -0.0169,-0.0349 -0.009,-0.0102 -0.0236,-0.0134 -0.037,-0.0134 h -0.30621 v -0.56444 c 0,-0.0166 -0.007,-0.0303 -0.0194,-0.0399 -0.0123,-0.009 -0.0293,-0.0131 -0.0448,-0.01 l -0.52035,0.13229 c -0.024,0.005 -0.0406,0.0268 -0.0406,0.0483 v 0.43356 h -0.0875 c -0.0145,0 -0.0282,0.003 -0.0371,0.0134 -0.0102,0.009 -0.0159,0.0212 -0.0159,0.0349 v 0.22331 c 0,0.012 0.006,0.024 0.0159,0.0339 0.009,0.01 0.0226,0.0141 0.0371,0.0141 h 0.0875 v 1.23966 c 0,0.27481 0.24376,0.40146 0.65898,0.40146 h 0.52141 c 0.0205,0 0.0399,-0.0127 0.048,-0.03 0.008,-0.019 -0.008,-0.0483 -0.0229,-0.0628 l -0.20426,-0.19967 c -0.01,-0.01 -0.0226,-0.0152 -0.0363,-0.0152 z"
         style="fill:#76b82a;fill-opacity:1;fill-rule:nonzero;stroke:none;stroke-width:0.35277778"
         id="path5912"
         inkscape:connector-curvature="0" />
      <path
         d="m 121.62713,154.62105 c -0.13899,0 -0.27481,-0.0892 -0.27481,-0.30515 v -0.003 l -0.001,-1.02024 H 121.66 c 0.0131,0 0.0268,-0.005 0.036,-0.0141 0.0106,-0.01 0.0166,-0.0215 0.0166,-0.0346 v -0.22543 c 0,-0.0123 -0.006,-0.024 -0.0166,-0.0335 -0.009,-0.009 -0.0236,-0.0148 -0.036,-0.0148 h -0.30868 v -0.56691 c 0,-0.0166 -0.007,-0.0303 -0.0187,-0.0399 -0.0131,-0.009 -0.03,-0.0131 -0.0459,-0.01 l -0.52317,0.13335 c -0.0243,0.005 -0.042,0.0265 -0.042,0.0483 v 0.43497 h -0.0864 c -0.0145,0 -0.0286,0.006 -0.0381,0.0148 -0.0102,0.01 -0.0166,0.0212 -0.0166,0.0335 v 0.22543 c 0,0.013 0.006,0.025 0.0166,0.0346 0.01,0.009 0.0236,0.0141 0.0381,0.0141 h 0.0864 v 1.24601 c 0,0.27729 0.24659,0.40358 0.66251,0.40358 h 0.52529 c 0.0212,0 0.0402,-0.0116 0.048,-0.0293 0.009,-0.0183 0.005,-0.0385 -0.008,-0.0526 l -0.23142,-0.22437 c -0.008,-0.01 -0.0219,-0.0152 -0.0367,-0.0152 z"
         style="fill:#76b82a;fill-opacity:1;fill-rule:nonzero;stroke:none;stroke-width:0.35277778"
         id="path5916"
         inkscape:connector-curvature="0" />
      <path
         d="m 120.07135,153.82166 c -0.079,-0.0522 -0.19438,-0.0773 -0.3496,-0.0773 h -0.004 l -1.56528,-0.002 v -0.14675 c 0,-0.16616 0.14429,-0.30128 0.32279,-0.30128 l 1.61467,-0.001 c 0.0145,0 0.0289,-0.004 0.0402,-0.0141 0.009,-0.01 0.0134,-0.0215 0.0134,-0.0346 v -0.22542 c 0,-0.0123 -0.004,-0.024 -0.0134,-0.0335 -0.0113,-0.009 -0.0261,-0.0148 -0.0402,-0.0148 h -1.82563 c -0.40887,0 -0.74118,0.30833 -0.74118,0.69038 v 0.3937 c 0,0.0113 0.006,0.0229 0.0152,0.0335 0.01,0.007 0.0222,0.0127 0.0349,0.0127 l 1.77095,0.002 c 0.15345,0 0.27728,0.11571 0.27728,0.25682 0,0.14288 -0.12383,0.26035 -0.27728,0.26035 h -0.13759 -1.6256 c -0.0243,0 -0.0441,0.0138 -0.0536,0.0321 -0.008,0.0176 -0.004,0.042 0.0109,0.0575 l 0.21942,0.21766 c 0.009,0.009 0.0251,0.0155 0.0388,0.0155 h 1.77165 c 0.32314,0 0.62053,-0.12065 0.62053,-0.38241 v -0.37712 -0.0547 -0.0677 c 3.6e-4,-0.10089 -0.0416,-0.18979 -0.11747,-0.23883"
         style="fill:#76b82a;fill-opacity:1;fill-rule:nonzero;stroke:none;stroke-width:0.35277778"
         id="path5920"
         inkscape:connector-curvature="0" />
      <path
         d="m 95.637043,148.40144 h 2.345972 c -0.276578,-0.61877 -0.896761,-1.05057 -1.616428,-1.05057 h -1.773061 v 1.77094 c 0,0.71967 0.428625,1.33809 1.043517,1.61467 z"
         style="fill:#76b82a;fill-opacity:1;fill-rule:nonzero;stroke:none;stroke-width:0.35277778"
         id="path5924"
         inkscape:connector-curvature="0" />
      <path
         d="m 101.55327,151.47851 c -0.0116,-0.0127 -0.03,-0.0215 -0.0473,-0.0215 -0.17921,0 -0.35666,-0.10901 -0.35666,-0.39829 v -0.001 -0.003 -2.59397 c 0,-0.0201 -0.01,-0.0395 -0.0261,-0.0515 -0.0155,-0.0123 -0.0377,-0.019 -0.0579,-0.0123 l -0.68651,0.17675 c -0.0325,0.008 -0.055,0.0325 -0.055,0.0649 v 2.68816 c 0,0.37112 0.32914,0.53834 0.86924,0.53834 l 0.5768,-0.002 c 0.0272,-0.001 0.0511,-0.0169 0.0617,-0.0406 0.0116,-0.0254 0.006,-0.0519 -0.0127,-0.0706 z"
         style="fill:#1b2a4a;fill-opacity:1;fill-rule:nonzero;stroke:none;stroke-width:0.35277778"
         id="path5928"
         inkscape:connector-curvature="0" />
      <path
         d="m 113.20559,149.2317 h -1.80446 c -0.0194,0 -0.036,0.006 -0.0483,0.018 -0.0109,0.0116 -0.0205,0.0303 -0.0205,0.0459 v 2.50331 c 0,0.0176 0.01,0.0339 0.0205,0.0459 0.0123,0.0138 0.0289,0.0201 0.0483,0.0201 h 0.73519 c 0.0194,0 0.0374,-0.006 0.0487,-0.0201 0.0145,-0.012 0.0215,-0.0282 0.0215,-0.0459 v -2.13219 h 0.61066 c 0.13688,0 0.25577,0.0328 0.35278,0.0995 0.10407,0.0727 0.15981,0.17674 0.16051,0.30021 v 0.19509 c 0,0.0183 0.007,0.0349 0.0194,0.0459 0.0131,0.012 0.031,0.0205 0.0487,0.0205 h 0.69991 c 0.0162,0 0.0346,-0.008 0.0469,-0.0205 0.0127,-0.0109 0.0219,-0.0275 0.0219,-0.0459 v -0.11077 c 0,-0.50765 -0.43109,-0.91899 -0.96167,-0.91899"
         style="fill:#1b2a4a;fill-opacity:1;fill-rule:nonzero;stroke:none;stroke-width:0.35277778"
         id="path5932"
         inkscape:connector-curvature="0" />
      <path
         d="m 108.91426,149.2317 h -2.09656 -0.0885 c -0.52987,0 -0.9599,0.41134 -0.9599,0.91899 v 1.20473 c 0,0.34925 0.38488,0.50941 0.80151,0.50941 l 1.71168,-0.002 h 0.62829 c 0.0272,-0.001 0.0519,-0.0169 0.0635,-0.0406 0.01,-0.0254 0.006,-0.0519 -0.0124,-0.0706 l -0.26775,-0.2734 c -0.012,-0.0127 -0.0293,-0.0215 -0.0476,-0.0215 h -0.56021 l -1.08973,-0.002 c -0.23248,0 -0.4191,-0.17956 -0.4191,-0.40005 l 0.005,-0.98954 c 0,-0.22154 0.18768,-0.40181 0.42016,-0.40181 h 0.15804 0.82303 0.17957 l -0.004,0.58137 c 0,0.0145 0.006,0.0275 0.0176,0.0378 0.0106,0.0106 0.0257,0.0166 0.0388,0.0166 h 0.70697 c 0.0148,0 0.0293,-0.006 0.0395,-0.0166 0.0116,-0.0102 0.0173,-0.0233 0.0173,-0.0378 v -0.81103 -0.14076 c 0,-0.0162 -0.006,-0.0321 -0.0187,-0.043 -0.0127,-0.0116 -0.0286,-0.018 -0.0469,-0.018"
         style="fill:#1b2a4a;fill-opacity:1;fill-rule:nonzero;stroke:none;stroke-width:0.35277778"
         id="path5936"
         inkscape:connector-curvature="0" />
      <path
         d="m 118.84668,149.2317 h -2.09585 -0.0889 c -0.52952,0 -0.95921,0.41134 -0.95921,0.91899 v 1.20473 c 0,0.34925 0.38383,0.50941 0.80081,0.50941 l 1.71274,-0.002 h 0.62759 c 0.0268,-0.001 0.0515,-0.0169 0.0617,-0.0406 0.012,-0.0254 0.007,-0.0519 -0.012,-0.0706 l -0.26599,-0.2734 c -0.0131,-0.0127 -0.0311,-0.0215 -0.0483,-0.0215 h -0.5595 l -1.09044,-0.002 c -0.23107,0 -0.41945,-0.17956 -0.41945,-0.40005 l 0.006,-0.98954 c 0,-0.22154 0.18733,-0.40181 0.41945,-0.40181 h 0.15805 0.82409 0.1778 l -0.002,0.67451 c 0,0.0141 0.005,0.0275 0.0162,0.0385 0.0106,0.01 0.025,0.0162 0.0406,0.0162 h 0.7059 c 0.0145,0 0.0296,-0.007 0.0392,-0.0162 0.0106,-0.0109 0.0169,-0.0243 0.0169,-0.0385 v -0.31115 -0.59302 -0.14076 c 0,-0.0162 -0.007,-0.0321 -0.0198,-0.043 -0.0102,-0.0116 -0.0279,-0.018 -0.0459,-0.018"
         style="fill:#1b2a4a;fill-opacity:1;fill-rule:nonzero;stroke:none;stroke-width:0.35277778"
         id="path5940"
         inkscape:connector-curvature="0" />
      <path
         d="m 115.31802,148.40913 c -0.0155,-0.0127 -0.037,-0.0194 -0.0568,-0.0127 l -0.73095,0.17886 c -0.0311,0.007 -0.0536,0.0328 -0.0536,0.0628 v 0.39688 c 0,0.0187 0.008,0.0388 0.024,0.0501 0.0138,0.0109 0.0293,0.0162 0.0441,0.0162 0.005,0 0.0106,0 0.0145,-0.002 l 0.72778,-0.17886 c 0.0346,-0.006 0.0568,-0.0339 0.0568,-0.0635 v -0.39581 c 0,-0.0191 -0.009,-0.0395 -0.0258,-0.0515"
         style="fill:#1b2a4a;fill-opacity:1;fill-rule:nonzero;stroke:none;stroke-width:0.35277778"
         id="path5944"
         inkscape:connector-curvature="0" />
      <path
         d="m 115.31802,149.24497 c -0.0155,-0.012 -0.037,-0.0166 -0.0568,-0.0127 l -0.73095,0.17886 c -0.0311,0.007 -0.0536,0.0339 -0.0536,0.0653 v 2.32128 c 0,0.0176 0.006,0.0353 0.0208,0.0469 0.0116,0.0138 0.03,0.0205 0.0473,0.0205 h 0.72919 c 0.0201,0 0.0367,-0.007 0.0494,-0.0205 0.013,-0.0116 0.0205,-0.0279 0.0205,-0.0469 v -2.50084 c 0,-0.0205 -0.009,-0.0392 -0.0258,-0.0519"
         style="fill:#1b2a4a;fill-opacity:1;fill-rule:nonzero;stroke:none;stroke-width:0.35277778"
         id="path5948"
         inkscape:connector-curvature="0" />
      <path
         d="m 120.16353,148.40913 c -0.0169,-0.0127 -0.0402,-0.0194 -0.0593,-0.0127 l -0.7306,0.17886 c -0.0293,0.007 -0.0536,0.0328 -0.0536,0.0628 v 0.39688 c 0,0.0187 0.0102,0.0388 0.0257,0.0501 0.012,0.0109 0.0279,0.0162 0.043,0.0162 0.004,0 0.0106,0 0.0155,-0.002 l 0.72919,-0.17886 c 0.0325,-0.006 0.055,-0.0339 0.055,-0.0635 v -0.39581 c 0,-0.0191 -0.0102,-0.0395 -0.0251,-0.0515"
         style="fill:#1b2a4a;fill-opacity:1;fill-rule:nonzero;stroke:none;stroke-width:0.35277778"
         id="path5952"
         inkscape:connector-curvature="0" />
      <path
         d="m 120.16353,149.24497 c -0.0169,-0.012 -0.0402,-0.0166 -0.0593,-0.0127 l -0.7306,0.17886 c -0.0293,0.007 -0.0536,0.0339 -0.0536,0.0653 v 2.32128 c 0,0.0176 0.007,0.0353 0.0215,0.0469 0.0116,0.0138 0.0303,0.0205 0.0473,0.0205 h 0.73025 c 0.0183,0 0.0349,-0.007 0.048,-0.0205 0.0138,-0.0116 0.0215,-0.0279 0.0215,-0.0469 v -2.50084 c 0,-0.0205 -0.0102,-0.0392 -0.0251,-0.0519"
         style="fill:#1b2a4a;fill-opacity:1;fill-rule:nonzero;stroke:none;stroke-width:0.35277778"
         id="path5956"
         inkscape:connector-curvature="0" />
      <path
         d="m 105.43915,149.23484 h -2.43276 -0.003 -0.085 -0.003 c -0.52952,0 -0.95815,0.41099 -0.95815,0.91828 v 0.1711 1.03117 c 0,0.34925 0.38312,0.50941 0.79975,0.50941 h 0.004 0.008 l 2.03835,-0.002 h 0.629 c 0.0272,-0.001 0.0522,-0.0159 0.0628,-0.0406 0.0106,-0.0254 0.006,-0.0519 -0.0123,-0.0705 l -0.26741,-0.2734 c -0.0127,-0.0123 -0.0296,-0.0201 -0.0473,-0.0201 l -0.56056,-0.001 -1.42981,-0.002 c -0.0127,0 -0.0275,0 -0.0406,-3.6e-4 -0.21061,-0.0208 -0.37359,-0.19155 -0.37359,-0.39828 v -0.31538 h 2.17064 c 0.19226,-0.001 0.33549,-0.0413 0.43498,-0.12383 l 0.007,-0.007 c 0.0819,-0.0924 0.12453,-0.20673 0.12453,-0.33866 v -0.97508 c 0,-0.0155 -0.007,-0.0321 -0.0197,-0.042 -0.0106,-0.0127 -0.0282,-0.0187 -0.0455,-0.0187 m -0.65546,0.83467 c -0.0106,0.21096 -0.19473,0.24201 -0.41875,0.24201 h -0.20179 -1.25165 -0.13935 v -0.24448 c 0,-0.2226 0.18768,-0.40146 0.41945,-0.40146 h 0.15487 0.005 1.25272 0.004 0.17709 z"
         style="fill:#1b2a4a;fill-opacity:1;fill-rule:nonzero;stroke:none;stroke-width:0.35277778"
         id="path5960"
         inkscape:connector-curvature="0" />
      <path
         d="M 99.948199,149.23484 H 97.51756 97.51296 97.429 97.4251 c -0.529519,0 -0.959908,0.41099 -0.959908,0.91828 v 0.1711 1.03117 c 0,0.34925 0.384881,0.50941 0.801511,0.50941 h 0.0039 0.0081 l 2.036938,-0.002 h 0.630062 c 0.02716,-0.001 0.05115,-0.0159 0.06244,-0.0406 0.0116,-0.0254 0.005,-0.0519 -0.0127,-0.0705 l -0.266347,-0.2734 c -0.01164,-0.0123 -0.03034,-0.0201 -0.04798,-0.0201 l -0.560211,-0.001 -1.429455,-0.002 c -0.01411,0 -0.02787,0 -0.04163,-3.6e-4 -0.20955,-0.0208 -0.372886,-0.19155 -0.372886,-0.39828 v -0.31538 h 2.1717 c 0.190147,-0.001 0.335491,-0.0413 0.434975,-0.12383 l 0.006,-0.007 c 0.0822,-0.0924 0.124181,-0.20673 0.124181,-0.33866 v -0.97508 c 0,-0.0155 -0.006,-0.0321 -0.01835,-0.042 -0.01235,-0.0127 -0.02928,-0.0187 -0.04727,-0.0187 m -0.654403,0.83467 c -0.01164,0.21096 -0.19438,0.24201 -0.418041,0.24201 h -0.201789 -1.252361 -0.138642 v -0.24448 c 0,-0.2226 0.188383,-0.40146 0.418747,-0.40146 h 0.156281 0.0035 1.252362 0.0021 0.1778 z"
         style="fill:#1b2a4a;fill-opacity:1;fill-rule:nonzero;stroke:none;stroke-width:0.35277778"
         id="path5964"
         inkscape:connector-curvature="0" />
      <path
         d="m 110.79107,151.48694 c -0.0116,-0.0141 -0.03,-0.0212 -0.0476,-0.0212 h -0.10019 c -0.17992,0 -0.35666,-0.11782 -0.35666,-0.4071 v -0.001 -0.003 -1.39065 h 0.39723 c 0.0194,0 0.0374,-0.006 0.0494,-0.018 0.0131,-0.0134 0.0208,-0.03 0.0208,-0.0476 v -0.29704 c 0,-0.0176 -0.008,-0.036 -0.0208,-0.0476 -0.012,-0.0127 -0.0303,-0.0183 -0.0494,-0.0183 h -0.39723 v -0.7747 c 0,-0.0198 -0.0106,-0.0395 -0.0261,-0.0512 -0.0169,-0.0127 -0.0377,-0.0194 -0.0575,-0.0127 l -0.67804,0.17674 c -0.0314,0.008 -0.0533,0.0324 -0.0533,0.0649 v 0.5969 h -0.11289 c -0.018,0 -0.0356,0.006 -0.0487,0.0183 -0.0134,0.0117 -0.0208,0.03 -0.0208,0.0476 v 0.29704 c 0,0.0176 0.007,0.0342 0.0208,0.0476 0.0131,0.0116 0.0307,0.018 0.0487,0.018 h 0.11289 v 1.66265 c 0,0.37112 0.31927,0.53833 0.85831,0.53833 h 0.67874 c 0.0265,0 0.0512,-0.0155 0.0617,-0.0388 0.0113,-0.0254 0.006,-0.0529 -0.0131,-0.0716 z"
         style="fill:#1b2a4a;fill-opacity:1;fill-rule:nonzero;stroke:none;stroke-width:0.35277778"
         id="path5968"
         inkscape:connector-curvature="0" />
      <path
         d="m 122.0365,151.48694 c -0.012,-0.0141 -0.0289,-0.0212 -0.0473,-0.0212 h -0.1009 c -0.17956,0 -0.35736,-0.11782 -0.35736,-0.4071 v -0.001 -0.003 -1.39065 h 0.39934 c 0.0183,0 0.0367,-0.006 0.0483,-0.018 0.012,-0.0134 0.0194,-0.03 0.0194,-0.0476 v -0.29704 c 0,-0.0176 -0.007,-0.036 -0.0194,-0.0476 -0.0116,-0.0127 -0.03,-0.0183 -0.0483,-0.0183 h -0.39934 v -0.7747 c 0,-0.0198 -0.008,-0.0395 -0.024,-0.0512 -0.0166,-0.0127 -0.0402,-0.0194 -0.0589,-0.0127 l -0.67663,0.17674 c -0.0314,0.008 -0.0543,0.0324 -0.0543,0.0649 v 0.5969 h -0.1143 c -0.0162,0 -0.0346,0.006 -0.0483,0.0183 -0.0116,0.0117 -0.019,0.03 -0.019,0.0476 v 0.29704 c 0,0.0176 0.007,0.0342 0.019,0.0476 0.0138,0.0116 0.0314,0.018 0.0483,0.018 h 0.1143 v 1.66265 c 0,0.37112 0.31927,0.53833 0.85796,0.53833 h 0.67768 c 0.0272,0 0.0522,-0.0155 0.0628,-0.0388 0.0116,-0.0254 0.006,-0.0529 -0.0131,-0.0716 z"
         style="fill:#1b2a4a;fill-opacity:1;fill-rule:nonzero;stroke:none;stroke-width:0.35277778"
         id="path5972"
         inkscape:connector-curvature="0" />
      <path
         d="m 125.67092,149.26356 c 0,-0.003 0,-0.007 -3.5e-4,-0.01 0,-0.004 -0.001,-0.007 -0.004,-0.01 v -0.004 c -0.002,-0.003 -0.003,-0.004 -0.004,-0.007 -0.002,-7.1e-4 -0.002,-0.003 -0.005,-0.006 -7.1e-4,-0.001 -0.003,-0.004 -0.005,-0.005 -10e-4,-0.002 -10e-4,-0.002 -0.002,-0.002 -3.6e-4,0 -0.001,-7e-4 -0.001,-7e-4 -0.002,-0.003 -0.003,-0.004 -0.003,-0.005 -0.002,0 -0.002,0 -0.003,-0.001 -0.002,-3.6e-4 -0.003,-0.002 -0.006,-0.003 -0.002,-0.002 -0.005,-0.003 -0.007,-0.003 -3.5e-4,-0.001 -0.004,-0.001 -0.006,-0.003 -0.001,0 -0.005,-0.002 -0.007,-0.002 -0.004,-7.1e-4 -0.007,-7.1e-4 -0.01,-0.001 h -0.005 c -0.005,0 -0.01,7e-4 -0.013,0.001 l -0.68298,0.17533 c -0.031,0.009 -0.0533,0.0349 -0.0533,0.0663 v 2.02001 h -1.22872 c -0.17956,0 -0.35525,-0.14535 -0.35525,-0.43216 v -0.002 -0.002 -1.76072 c 0,-0.0205 -0.0102,-0.0388 -0.0254,-0.0512 -0.0159,-0.013 -0.0374,-0.0183 -0.0582,-0.013 l -0.67909,0.1778 c -0.0314,0.006 -0.0536,0.0339 -0.0536,0.0639 v 1.8856 c 0,0.36936 0.32703,0.53728 0.86572,0.53728 l 1.536,-7.1e-4 v 0.43886 c 0,0.13688 -0.0769,0.26211 -0.32174,0.26211 l -1.83091,-7e-4 c -0.0169,0 -0.036,0.009 -0.0473,0.0208 l -0.26599,0.2727 c -0.0191,0.0187 -0.0247,0.0466 -0.0131,0.0716 0.0109,0.0233 0.0353,0.0388 0.0628,0.0399 h 2.43276 c 0.41698,0 0.79939,-0.16017 0.79939,-0.51188 v -0.085 -0.79622 -0.0861 -0.55951 -0.72213 -0.94404 z"
         style="fill:#1b2a4a;fill-opacity:1;fill-rule:nonzero;stroke:none;stroke-width:0.35277778"
         id="path5976"
         inkscape:connector-curvature="0" />
    </g>
  </g>
</svg>
