<?xml version="1.0" encoding="UTF-8"?><svg id="Layer_2" xmlns="http://www.w3.org/2000/svg" viewBox="0 0 599.9 215.3"><defs><style>.cls-1{fill:#e7342c;}</style></defs><g id="layer"><path class="cls-1" d="M165.8,162.3h0c-.3,0,0-1.4,0-2.8v-3.8c0-3.5-1.7-5.2-5.2-5.2h-4.9c-3.5,0-5.2,1.7-5.2,5.2v52.6c0,3.5,1.7,5.2,5.2,5.2h5.6c3.5,0,5.2-1.7,5.2-5.2v-23c0-10.5,5.2-22,16.4-22,7.3,0,8.4,5.9,8.4,12.5v32.4c0,3.5,1.7,5.2,5.2,5.2h5.6c3.5,0,5.2-1.7,5.2-5.2v-23c0-11.1,5.6-22,16-22,7.3,0,8.7,5.6,8.7,12.5v32.4c0,3.5,1.7,5.2,5.2,5.2h5.2c3.5,0,5.2-1.7,5.2-5.2v-35.2c0-16.7-7.7-24-20.6-24-9.8,0-18.1,6.3-21.6,12.9h-.3c-2.4-8.7-9.1-12.9-18.5-12.9-10,.2-17.7,7.1-20.8,13.4M72,208.3v-77.4c0-3.5-1.7-5.2-5.2-5.2h-5.6c-3.5,0-5.2,1.7-5.2,5.2v31.4c-6.3,3.5-12.5,5.2-19.5,5.2s-14.3-2.1-20.9-5.9v-30.3c0-3.5-1.7-5.2-5.2-5.2h-5.2c-3.5,0-5.2,1.7-5.2,5.2v77.7c0,3.5,1.7,5.2,5.2,5.2h5.6c3.5,0,5.2-1.7,5.2-5.2v-32.1c6.6,3.1,13.6,4.9,20.9,4.9,6.6,0,13.2-1.4,19.5-4.2v31.4c0,3.5,1.7,5.2,5.2,5.2h5.6c3.1-.7,4.8-2.4,4.8-5.9M130.2,182.2c0,11.8-8.7,19.9-18.8,19.9s-18.8-8-18.8-19.9,8.4-19.9,18.8-19.9,18.8,8,18.8,19.9M111.4,149.1c-19.2,0-34.8,13.6-34.8,33.1s15.3,33.1,34.8,33.1,34.8-13.6,34.8-33.1c0-19.5-15.6-33.1-34.8-33.1M238.2,90.9c-9.1,11.5-23.7,18.1-39.4,18.1s-30.3-7-39.4-18.1c-.7-1-1-2.1-1-3.1s.7-2.1,1.4-2.8c.7-.7,1.7-1,2.8-1,1.4,0,2.4.7,3.1,1.7,7.7,9.4,19.9,15,32.8,15s25.1-5.6,32.8-15c.7-1,2.1-1.7,3.1-1.7s1.7.3,2.8,1c1,.7,1.4,1.7,1.4,2.8.7,1.3.3,2.4-.4,3.1M263.3,62.7c0-2.1-1-3.8-2.4-5.2L203.8,2.1c-1-1.4-3.1-2.1-4.9-2.1-2.1,0-3.8.7-5.2,2.1l-21.6,20.9v-3.5c0-3.8-3.1-7.3-7.3-7.3h-8c-3.8,0-7.3,3.1-7.3,7.3v25.4l-12.9,12.9c-1.4,1.4-2.1,3.1-2.1,5.2,0,3.8,3.1,7.3,7.3,7.3h7.7v48.1c0,3.8,3.1,7.3,7.3,7.3h84.6c3.8,0,7.3-3.1,7.3-7.3v-48.1h8c3.5-.3,6.6-3.5,6.6-7.6M266.1,178.7c-.7-8.4,3.5-15.3,11.1-17.4,7-1.7,13.2,1.7,16,10.1-3.8-.3-8.4,0-13.6,1.4-5.5,1-10,3.1-13.5,5.9M312.4,201.3c2.1-2.1,2.1-4.9,0-7.3l-2.4-1.7c-2.4-2.4-3.5-2.4-6.3-.3-2.4,2.4-7,7-12.5,8.4-10.8,2.8-19.5-1.7-23.3-12.2h0c5.2.7,12.5.3,20.9-2.1,9.1-2.4,15.3-5.6,18.5-9.4h0c1.4-1.4,2.1-3.5,1.7-5.2-4.5-16.7-17.4-26.5-34.8-22-18.5,4.9-27.5,21.6-22.3,40.4,4.5,17.4,21.3,28.6,41.5,23,9.3-2.5,15.6-8.1,19-11.6M333,148.7c0-5.9,5.2-9.8,13.2-9.8,7,0,11.5,2.8,15.3,4.9,2.4,1.4,5.2,1.7,7-1.7l2.1-4.2c1.4-2.8,1-5.2-1.7-7-3.8-2.8-12.2-6.6-22.6-6.6-16.7,0-29.6,10.1-29.6,25.4,0,27.5,41.1,24,41.1,40.8,0,5.9-4.9,10.1-13.2,10.1s-15-4.5-17.8-6.3c-3.1-1.7-5.2-1.7-7.3,1l-2.4,3.5c-2.4,3.5-1.4,5.6.7,7.3,4.2,3.5,14.6,9.1,27.2,9.1,18.5,0,29.3-11.8,29.3-26.1-.2-28.2-41.3-23.7-41.3-40.4M421.2,174.2c-3.5-1.4-8.4-2.1-13.6-1.7-5.6.3-10.5,1.4-14.3,3.1,1-8.4,6.6-14.3,14.6-14.6,7.3-.4,12.6,4.4,13.3,13.2M437.2,177.6c-.7-17.4-11.5-29.6-29.3-28.9-18.8.7-31.4,15-30.7,34.5.7,17.8,14.3,32.4,35.2,31.7,9.8-.3,17.1-4.5,21.3-7.3,2.8-1.7,3.1-4.2,1.4-7l-1.7-2.4c-1.7-2.8-3.1-3.5-5.9-1.7-2.8,2.1-8,5.2-13.9,5.6-11.1.3-18.8-5.9-20.2-17.1h0c5.2,2.1,12.2,2.8,20.9,2.4,9.4-.3,16-2.4,20.2-4.9h0c1.6-1,2.7-2.8,2.7-4.9M479.7,159.9v-4.9c0-3.5-1.4-5.2-4.9-5.2-9.1,0-16,8.4-18.5,16h-.3s.3-2.1.3-4.2v-5.9c0-3.5-1.7-5.2-5.2-5.2h-4.9c-3.5,0-5.2,1.7-5.2,5.2v52.6c0,3.5,1.7,5.2,5.2,5.2h5.6c3.5,0,5.2-1.7,5.2-5.2v-20.2c0-11.5,5.6-23,17.1-23,3.8,0,5.6-1.8,5.6-5.2M542.8,156.4c1.4-3.5-.3-5.9-4.2-5.9h-5.9c-3.1,0-4.9,1.4-5.9,4.2l-11.8,34.8c-1.4,3.8-2.1,9.4-2.1,9.4h-.3s-1-5.9-2.4-9.4l-11.8-34.8c-.7-3.1-2.8-4.2-5.9-4.2h-5.9c-3.8,0-5.2,2.4-4.2,5.9l19.2,53c.7,3.1,2.8,4.2,5.9,4.2h9.8c3.1,0,4.9-1.4,5.9-4.2l19.6-53ZM584.2,174.2c-3.5-1.4-8.4-2.1-13.6-1.7-5.6.3-10.5,1.4-14.3,3.1,1-8.4,6.6-14.3,14.6-14.6,7-.4,12.6,4.4,13.3,13.2M599.9,177.6c-.7-17.4-11.5-29.6-29.3-28.9-18.8.7-31.4,15-30.7,34.5.7,17.8,14.3,32.4,35.2,31.7,9.8-.3,17.1-4.5,21.3-7.3,2.8-1.7,3.1-4.2,1.4-7l-1.7-2.4c-1.7-2.8-3.1-3.5-5.9-1.7-2.8,2.1-8,5.2-13.9,5.6-11.1.3-18.8-5.9-20.2-17.1h0c5.2,2.1,12.2,2.8,20.9,2.4,9.4-.3,16-2.4,20.2-4.9h0c1.7-1,2.7-2.8,2.7-4.9"/><path class="cls-1" d="M591.2,124.3c4.9,0,8.7,3.8,8.7,9.1,0,4.9-3.8,9.1-8.7,9.1s-8.7-4.2-8.7-9.1c0-5.2,3.8-9.1,8.7-9.1ZM591.2,140c3.8,0,6.6-3.1,6.6-7s-2.8-7-6.6-7-6.6,3.1-6.6,7c0,3.9,2.8,7,6.6,7ZM588.1,129.6c0-.7.3-1,1-1h2.8c1.7,0,2.8,1,2.8,2.8,0,1.4-1,2.1-1.4,2.4h0l.3.3,1,2.1c.3.7,0,1-.3,1h-.3c-.7,0-1-.3-1-.7l-1-2.4h-1v2.4c0,.7-.3,1-1,1h0c-.7,0-1-.3-1-1v-7h-.9v.1ZM591.2,132.7c.7,0,1.4-.3,1.4-1.4,0-.7-.3-1.4-1.4-1.4h-1v2.8c-.1,0,1,0,1,0Z"/></g></svg>