<?xml version="1.0" encoding="UTF-8" standalone="no"?>
<!-- Created with Inkscape (http://www.inkscape.org/) -->

<svg
   xmlns:dc="http://purl.org/dc/elements/1.1/"
   xmlns:cc="http://creativecommons.org/ns#"
   xmlns:rdf="http://www.w3.org/1999/02/22-rdf-syntax-ns#"
   xmlns:svg="http://www.w3.org/2000/svg"
   xmlns="http://www.w3.org/2000/svg"
   version="1.1"
   width="892.91339"
   height="251.5748"
   id="svg10229"
   xml:space="preserve"><metadata
     id="metadata10235"><rdf:RDF><cc:Work
         rdf:about=""><dc:format>image/svg+xml</dc:format><dc:type
           rdf:resource="http://purl.org/dc/dcmitype/StillImage" /><dc:title></dc:title></cc:Work></rdf:RDF></metadata><defs
     id="defs10233"><clipPath
       id="clipPath10737"><path
         d="m 0,0 595.276,0 0,841.89 L 0,841.89 0,0 z"
         id="path10739" /></clipPath><clipPath
       id="clipPath10997"><path
         d="M 0,0 72,0 72,72 0,72 0,0 z"
         id="path10999" /></clipPath><pattern
       id="pattern11001"
       height="72"
       width="72"
       y="0"
       x="0"
       patternUnits="userSpaceOnUse"
       patternTransform="matrix(1.07629,0,0,1.07629,-316.254,-124.481)"><g
         id="g11003"><g
           id="g11005"
           clip-path="url(#clipPath10997)"><g
             id="g11007"
             transform="translate(6,72.25)"><path
               id="path11009"
               style="fill:none;stroke:#000000;stroke-opacity:1;stroke-width:0.3;stroke-linecap:butt;stroke-linejoin:miter;stroke-miterlimit:4;stroke-dasharray:none"
               d="M 0,0 0,-72.5" /></g><g
             id="g11011"
             transform="translate(30,72.25)"><path
               id="path11013"
               style="fill:none;stroke:#000000;stroke-opacity:1;stroke-width:0.3;stroke-linecap:butt;stroke-linejoin:miter;stroke-miterlimit:4;stroke-dasharray:none"
               d="M 0,0 0,-72.5" /></g><g
             id="g11015"
             transform="translate(54,72.25)"><path
               id="path11017"
               style="fill:none;stroke:#000000;stroke-opacity:1;stroke-width:0.3;stroke-linecap:butt;stroke-linejoin:miter;stroke-miterlimit:4;stroke-dasharray:none"
               d="M 0,0 0,-72.5" /></g><g
             id="g11019"
             transform="translate(-0.25,6)"><path
               id="path11021"
               style="fill:none;stroke:#000000;stroke-opacity:1;stroke-width:0.3;stroke-linecap:butt;stroke-linejoin:miter;stroke-miterlimit:4;stroke-dasharray:none"
               d="M 0,0 72.5,0" /></g><g
             id="g11023"
             transform="translate(-0.25,30)"><path
               id="path11025"
               style="fill:none;stroke:#000000;stroke-opacity:1;stroke-width:0.3;stroke-linecap:butt;stroke-linejoin:miter;stroke-miterlimit:4;stroke-dasharray:none"
               d="M 0,0 72.5,0" /></g><g
             id="g11027"
             transform="translate(-0.25,54)"><path
               id="path11029"
               style="fill:none;stroke:#000000;stroke-opacity:1;stroke-width:0.3;stroke-linecap:butt;stroke-linejoin:miter;stroke-miterlimit:4;stroke-dasharray:none"
               d="M 0,0 72.5,0" /></g><g
             id="g11031"
             transform="translate(-0.25,18)"><path
               id="path11033"
               style="fill:none;stroke:#000000;stroke-opacity:1;stroke-width:0.3;stroke-linecap:butt;stroke-linejoin:miter;stroke-miterlimit:4;stroke-dasharray:none"
               d="M 0,0 72.5,0" /></g><g
             id="g11035"
             transform="translate(-0.25,42)"><path
               id="path11037"
               style="fill:none;stroke:#000000;stroke-opacity:1;stroke-width:0.3;stroke-linecap:butt;stroke-linejoin:miter;stroke-miterlimit:4;stroke-dasharray:none"
               d="M 0,0 72.5,0" /></g><g
             id="g11039"
             transform="translate(-0.25,66)"><path
               id="path11041"
               style="fill:none;stroke:#000000;stroke-opacity:1;stroke-width:0.3;stroke-linecap:butt;stroke-linejoin:miter;stroke-miterlimit:4;stroke-dasharray:none"
               d="M 0,0 72.5,0" /></g><g
             id="g11043"
             transform="translate(18,72.25)"><path
               id="path11045"
               style="fill:none;stroke:#000000;stroke-opacity:1;stroke-width:0.3;stroke-linecap:butt;stroke-linejoin:miter;stroke-miterlimit:4;stroke-dasharray:none"
               d="M 0,0 0,-72.5" /></g><g
             id="g11047"
             transform="translate(42,72.25)"><path
               id="path11049"
               style="fill:none;stroke:#000000;stroke-opacity:1;stroke-width:0.3;stroke-linecap:butt;stroke-linejoin:miter;stroke-miterlimit:4;stroke-dasharray:none"
               d="M 0,0 0,-72.5" /></g><g
             id="g11051"
             transform="translate(66,72.25)"><path
               id="path11053"
               style="fill:none;stroke:#000000;stroke-opacity:1;stroke-width:0.3;stroke-linecap:butt;stroke-linejoin:miter;stroke-miterlimit:4;stroke-dasharray:none"
               d="M 0,0 0,-72.5" /></g></g></g></pattern><clipPath
       id="clipPath11139"><path
         d="M 0,0 72,0 72,72 0,72 0,0 z"
         id="path11141" /></clipPath><pattern
       id="pattern11143"
       height="72"
       width="72"
       y="0"
       x="0"
       patternUnits="userSpaceOnUse"
       patternTransform="matrix(1.07629,0,0,1.07629,-316.254,-124.481)"><g
         id="g11145"><g
           id="g11147"
           clip-path="url(#clipPath11139)"><g
             id="g11149"
             transform="translate(6,72.25)"><path
               id="path11151"
               style="fill:none;stroke:#000000;stroke-opacity:1;stroke-width:0.3;stroke-linecap:butt;stroke-linejoin:miter;stroke-miterlimit:4;stroke-dasharray:none"
               d="M 0,0 0,-72.5" /></g><g
             id="g11153"
             transform="translate(30,72.25)"><path
               id="path11155"
               style="fill:none;stroke:#000000;stroke-opacity:1;stroke-width:0.3;stroke-linecap:butt;stroke-linejoin:miter;stroke-miterlimit:4;stroke-dasharray:none"
               d="M 0,0 0,-72.5" /></g><g
             id="g11157"
             transform="translate(54,72.25)"><path
               id="path11159"
               style="fill:none;stroke:#000000;stroke-opacity:1;stroke-width:0.3;stroke-linecap:butt;stroke-linejoin:miter;stroke-miterlimit:4;stroke-dasharray:none"
               d="M 0,0 0,-72.5" /></g><g
             id="g11161"
             transform="translate(-0.25,6)"><path
               id="path11163"
               style="fill:none;stroke:#000000;stroke-opacity:1;stroke-width:0.3;stroke-linecap:butt;stroke-linejoin:miter;stroke-miterlimit:4;stroke-dasharray:none"
               d="M 0,0 72.5,0" /></g><g
             id="g11165"
             transform="translate(-0.25,30)"><path
               id="path11167"
               style="fill:none;stroke:#000000;stroke-opacity:1;stroke-width:0.3;stroke-linecap:butt;stroke-linejoin:miter;stroke-miterlimit:4;stroke-dasharray:none"
               d="M 0,0 72.5,0" /></g><g
             id="g11169"
             transform="translate(-0.25,54)"><path
               id="path11171"
               style="fill:none;stroke:#000000;stroke-opacity:1;stroke-width:0.3;stroke-linecap:butt;stroke-linejoin:miter;stroke-miterlimit:4;stroke-dasharray:none"
               d="M 0,0 72.5,0" /></g><g
             id="g11173"
             transform="translate(-0.25,18)"><path
               id="path11175"
               style="fill:none;stroke:#000000;stroke-opacity:1;stroke-width:0.3;stroke-linecap:butt;stroke-linejoin:miter;stroke-miterlimit:4;stroke-dasharray:none"
               d="M 0,0 72.5,0" /></g><g
             id="g11177"
             transform="translate(-0.25,42)"><path
               id="path11179"
               style="fill:none;stroke:#000000;stroke-opacity:1;stroke-width:0.3;stroke-linecap:butt;stroke-linejoin:miter;stroke-miterlimit:4;stroke-dasharray:none"
               d="M 0,0 72.5,0" /></g><g
             id="g11181"
             transform="translate(-0.25,66)"><path
               id="path11183"
               style="fill:none;stroke:#000000;stroke-opacity:1;stroke-width:0.3;stroke-linecap:butt;stroke-linejoin:miter;stroke-miterlimit:4;stroke-dasharray:none"
               d="M 0,0 72.5,0" /></g><g
             id="g11185"
             transform="translate(18,72.25)"><path
               id="path11187"
               style="fill:none;stroke:#000000;stroke-opacity:1;stroke-width:0.3;stroke-linecap:butt;stroke-linejoin:miter;stroke-miterlimit:4;stroke-dasharray:none"
               d="M 0,0 0,-72.5" /></g><g
             id="g11189"
             transform="translate(42,72.25)"><path
               id="path11191"
               style="fill:none;stroke:#000000;stroke-opacity:1;stroke-width:0.3;stroke-linecap:butt;stroke-linejoin:miter;stroke-miterlimit:4;stroke-dasharray:none"
               d="M 0,0 0,-72.5" /></g><g
             id="g11193"
             transform="translate(66,72.25)"><path
               id="path11195"
               style="fill:none;stroke:#000000;stroke-opacity:1;stroke-width:0.3;stroke-linecap:butt;stroke-linejoin:miter;stroke-miterlimit:4;stroke-dasharray:none"
               d="M 0,0 0,-72.5" /></g></g></g></pattern></defs><g
     transform="matrix(1.25,0,0,-1.25,-3.2405494,705.88871)"
     id="g10237"><g
       transform="matrix(4.1548513,0,0,4.1548513,-1695.0999,295.65584)"
       id="g10733"><g
         clip-path="url(#clipPath10737)"
         id="g10735"><g
           transform="translate(410.0921,52.4427)"
           id="g10741"><path
             d="m 0,0 0,8.845 c 0,1.026 -0.059,1.752 -0.805,2.396 l 3.746,0 C 2.198,10.597 2.137,9.871 2.137,8.845 l 0,-9.489 c 1.068,-0.16 1.912,-0.242 2.517,-0.242 1.371,0 2.599,0.362 3.788,1.149 l -0.947,-2.68 -8.3,0 C -0.059,-1.752 0,-1.027 0,0"
             id="path10743"
             style="fill:#e42432;fill-opacity:1;fill-rule:nonzero;stroke:none" /></g><g
           transform="translate(423.864,50.0254)"
           id="g10745"><path
             d="m 0,0 -3.202,0 c 0.505,0.443 0.684,0.986 0.684,1.795 l 0,5.961 c 0,0.805 -0.179,1.37 -0.684,1.812 1.006,0.021 1.853,0.082 2.517,0.223 l 0,-7.996 C -0.685,0.986 -0.501,0.443 0,0 m -1.69,13.335 c 0.644,0 1.189,-0.523 1.189,-1.208 0,-0.684 -0.525,-1.208 -1.189,-1.208 -0.688,0 -1.21,0.543 -1.21,1.208 0,0.665 0.543,1.208 1.21,1.208"
             id="path10747"
             style="fill:#e42432;fill-opacity:1;fill-rule:nonzero;stroke:none" /></g><g
           transform="translate(430.9623,49.7034)"
           id="g10749"><path
             d="M 0,0 C -1.25,0.384 -1.752,1.269 -2.336,2.639 L -4.513,7.814 C -4.816,8.52 -5.138,9.226 -5.983,9.89 l 0.302,0 c 1.087,0 1.834,0.103 2.215,0.343 l 3.003,-7.614 2.336,5.195 c 0.181,0.406 0.303,0.727 0.303,1.029 0,0.363 -0.224,0.666 -0.624,1.047 l 2.859,0 L 0,0 z"
             id="path10751"
             style="fill:#e42432;fill-opacity:1;fill-rule:nonzero;stroke:none" /></g><g
           transform="translate(438.7781,56.3903)"
           id="g10753"><path
             d="M 0,0 C 0.18,1.43 1.189,2.298 2.659,2.298 3.989,2.298 5.036,1.37 5.116,0 L 0,0 z m -0.142,-1.349 7.394,0 C 7.213,1.754 5.46,3.607 2.78,3.607 c -2.922,0 -5.056,-2.136 -5.055,-5.198 0,-2.979 2.316,-5.116 5.478,-5.116 0.907,0 1.893,0.22 2.981,0.625 l 1.068,1.853 C 5.983,-4.893 4.855,-5.257 3.787,-5.257 c -2.255,0 -3.828,1.471 -3.929,3.908"
             id="path10755"
             style="fill:#e42432;fill-opacity:1;fill-rule:nonzero;stroke:none" /></g><g
           transform="translate(452.6979,58.1229)"
           id="g10757"><path
             d="m 0,0 c -1.369,0 -2.135,-0.947 -2.135,-2.738 l 0,-3.565 c 0,-0.808 0.181,-1.352 0.686,-1.794 l -3.225,0 c 0.504,0.442 0.685,0.986 0.685,1.794 l 0,5.962 c 0,0.804 -0.181,1.369 -0.685,1.812 l 0.223,0 c 0.664,0 1.387,0.082 2.195,0.222 l 0.14,-1.531 c 0.584,1.026 1.311,1.511 2.278,1.511 0.261,0 0.522,-0.04 0.826,-0.1 l 0,-1.894 C 0.684,-0.101 0.382,0 0,0"
             id="path10759"
             style="fill:#e42432;fill-opacity:1;fill-rule:nonzero;stroke:none" /></g><g
           transform="translate(456.1029,47.628)"
           id="g10761"><path
             d="m 0,0 0,10.154 c 0,0.804 -0.182,1.369 -0.685,1.812 l 0.261,0 c 0.625,0 1.351,0.061 2.176,0.222 l 0.081,-1.531 c 0.987,1.067 2.154,1.612 3.504,1.612 2.64,0 4.714,-2.095 4.714,-4.855 C 10.051,5.6 9.306,4.069 8.017,3.103 7.131,2.438 6.163,2.135 5.076,2.135 4.592,2.135 4.088,2.196 3.565,2.316 L 2.376,4.049 C 3.182,3.687 3.867,3.506 4.49,3.506 c 2.136,0 3.446,1.309 3.446,3.586 0,2.215 -1.39,3.705 -3.203,3.705 -0.784,0 -1.511,-0.281 -2.076,-0.805 C 1.913,9.307 1.873,8.341 1.873,6.99 l 0,-0.604 0,-6.386 c 0,-0.805 0.181,-1.349 0.685,-1.792 l -3.243,0 C -0.182,-1.349 0,-0.805 0,0"
             id="path10763"
             style="fill:#e42432;fill-opacity:1;fill-rule:nonzero;stroke:none" /></g><g
           transform="translate(470.0631,55.102)"
           id="g10765"><path
             d="m 0,0 c 0,1.933 1.31,3.406 3.142,3.406 1.914,0 3.323,-1.614 3.323,-3.869 C 6.465,-2.558 5.157,-4.01 3.324,-4.01 1.369,-4.01 0,-2.417 0,0 m -2.116,-0.403 c 0,-1.308 0.543,-2.579 1.511,-3.545 1.007,-1.007 2.196,-1.451 3.706,-1.451 1.473,0 2.882,0.544 3.868,1.47 1.048,0.988 1.592,2.277 1.592,3.727 0,1.33 -0.525,2.58 -1.491,3.547 C 6.063,4.351 4.854,4.814 3.365,4.814 1.893,4.814 0.483,4.25 -0.505,3.323 -1.552,2.336 -2.116,1.047 -2.116,-0.403"
             id="path10767"
             style="fill:#e42432;fill-opacity:1;fill-rule:nonzero;stroke:none" /></g><g
           transform="translate(482.5517,55.102)"
           id="g10769"><path
             d="m 0,0 c 0,1.933 1.31,3.406 3.141,3.406 1.916,0 3.325,-1.614 3.325,-3.869 C 6.466,-2.558 5.158,-4.01 3.325,-4.01 1.371,-4.01 0,-2.417 0,0 m -2.114,-0.403 c 0,-1.308 0.542,-2.579 1.509,-3.545 1.009,-1.007 2.196,-1.451 3.708,-1.451 1.471,0 2.879,0.544 3.866,1.47 1.048,0.988 1.593,2.277 1.593,3.727 0,1.33 -0.525,2.58 -1.49,3.547 C 6.063,4.351 4.854,4.814 3.364,4.814 1.894,4.814 0.483,4.25 -0.505,3.323 -1.551,2.336 -2.114,1.047 -2.114,-0.403"
             id="path10771"
             style="fill:#e42432;fill-opacity:1;fill-rule:nonzero;stroke:none" /></g><g
           transform="translate(496.231,50.0254)"
           id="g10773"><path
             d="m 0,0 -3.205,0 c 0.504,0.443 0.687,0.986 0.687,1.795 l 0,10.211 c 0,0.806 -0.183,1.35 -0.687,1.792 l 0.224,0 c 0.543,0 1.289,0.102 2.297,0.243 l 0,-12.246 C -0.684,0.986 -0.503,0.443 0,0"
             id="path10775"
             style="fill:#e42432;fill-opacity:1;fill-rule:nonzero;stroke:none" /></g><g
           transform="translate(500.5032,46.8434)"
           id="g10777"><path
             d="m 0,0 c -0.706,-0.666 -1.915,-1.169 -3.546,-1.37 2.136,1.51 2.377,2.719 2.377,4.795 l 0,11.019 c 0,1.027 -0.061,1.752 -0.806,2.396 l 3.746,0 C 1.026,16.196 0.966,15.471 0.966,14.444 l 0,-11.019 C 0.966,1.893 0.946,0.907 0,0"
             id="path10779"
             style="fill:#004785;fill-opacity:1;fill-rule:nonzero;stroke:none" /></g><g
           transform="translate(505.9281,55.102)"
           id="g10781"><path
             d="m 0,0 c 0,1.933 1.309,3.406 3.144,3.406 1.912,0 3.321,-1.614 3.321,-3.869 0,-2.095 -1.309,-3.547 -3.14,-3.547 C 1.371,-4.01 0,-2.417 0,0 m -2.117,-0.403 c 0,-1.308 0.545,-2.579 1.513,-3.545 1.006,-1.007 2.195,-1.451 3.706,-1.451 1.471,0 2.88,0.544 3.868,1.47 1.047,0.988 1.592,2.277 1.592,3.727 0,1.33 -0.524,2.58 -1.493,3.547 C 6.064,4.351 4.854,4.814 3.365,4.814 1.894,4.814 0.483,4.25 -0.504,3.323 -1.552,2.336 -2.117,1.047 -2.117,-0.403"
             id="path10783"
             style="fill:#004785;fill-opacity:1;fill-rule:nonzero;stroke:none" /></g><g
           transform="translate(518.8685,50.0254)"
           id="g10785"><path
             d="m 0,0 -3.224,0 c 0.503,0.443 0.684,0.986 0.684,1.795 l 0,10.211 c 0,0.806 -0.181,1.35 -0.684,1.792 l 0.181,0 c 0.564,0 1.33,0.081 2.317,0.243 l 0,-5.782 c 0.966,1.027 1.933,1.532 3.083,1.532 2.074,0 3.586,-1.37 3.586,-3.505 l 0,-4.491 C 5.943,0.986 6.122,0.443 6.627,0 L 3.383,0 c 0.503,0.443 0.683,0.986 0.683,1.795 l 0,3.424 c 0,2.013 -0.663,2.979 -2.354,2.979 -1.794,0 -2.398,-0.885 -2.398,-2.839 l 0,-3.564 C -0.686,0.986 -0.506,0.443 0,0"
             id="path10787"
             style="fill:#004785;fill-opacity:1;fill-rule:nonzero;stroke:none" /></g><g
           transform="translate(531.0002,50.0254)"
           id="g10789"><path
             d="m 0,0 -3.222,0 c 0.503,0.443 0.686,0.986 0.686,1.795 l 0,5.961 c 0,0.805 -0.183,1.37 -0.686,1.812 l 0.221,0 c 0.666,0 1.39,0.082 2.195,0.223 l 0.081,-1.532 c 0.967,1.027 1.935,1.532 3.083,1.532 2.074,0 3.586,-1.37 3.586,-3.505 l 0,-4.491 C 5.944,0.986 6.125,0.443 6.627,0 L 3.384,0 c 0.504,0.443 0.685,0.986 0.685,1.795 l 0,3.424 c 0,2.013 -0.662,2.979 -2.355,2.979 -1.794,0 -2.397,-0.885 -2.397,-2.839 l 0,-3.564 C -0.683,0.986 -0.504,0.443 0,0"
             id="path10791"
             style="fill:#004785;fill-opacity:1;fill-rule:nonzero;stroke:none" /></g><g
           transform="translate(410.5365,36.3064)"
           id="g10793"><path
             d="m 0,0 0,8.843 c 0,1.028 -0.06,1.751 -0.807,2.397 l 3.748,0 C 2.195,10.594 2.136,9.871 2.136,8.843 l 0,-9.489 c 1.067,-0.158 1.912,-0.241 2.518,-0.241 1.369,0 2.597,0.365 3.785,1.149 l -0.946,-2.679 -8.3,0 C -0.06,-1.753 0,-1.029 0,0"
             id="path10795"
             style="fill:#004785;fill-opacity:1;fill-rule:nonzero;stroke:none" /></g><g
           transform="translate(421.9795,40.2532)"
           id="g10797"><path
             d="M 0,0 C 0.18,1.431 1.188,2.298 2.658,2.298 3.987,2.298 5.035,1.369 5.115,0 L 0,0 z m -0.143,-1.35 7.394,0 c -0.04,3.104 -1.795,4.956 -4.473,4.956 -2.921,0 -5.056,-2.134 -5.056,-5.197 0,-2.98 2.317,-5.117 5.479,-5.117 0.908,0 1.894,0.222 2.982,0.625 l 1.068,1.853 c -1.27,-0.665 -2.397,-1.026 -3.464,-1.026 -2.258,0 -3.829,1.471 -3.93,3.906"
             id="path10799"
             style="fill:#004785;fill-opacity:1;fill-rule:nonzero;stroke:none" /></g><g
           transform="translate(433.9436,33.8891)"
           id="g10801"><path
             d="m 0,0 -3.224,0 c 0.504,0.441 0.685,0.987 0.685,1.793 l 0,5.962 c 0,0.805 -0.181,1.37 -0.685,1.813 l 0.222,0 c 0.666,0 1.391,0.08 2.197,0.222 l 0.08,-1.531 C 0.243,9.284 1.209,9.79 2.357,9.79 4.432,9.79 5.943,8.42 5.943,6.283 l 0,-4.49 C 5.943,0.987 6.124,0.441 6.628,0 L 3.384,0 c 0.504,0.441 0.685,0.987 0.685,1.793 l 0,3.425 c 0,2.012 -0.664,2.98 -2.356,2.98 -1.794,0 -2.398,-0.887 -2.398,-2.841 l 0,-3.564 C -0.685,0.987 -0.505,0.441 0,0"
             id="path10803"
             style="fill:#004785;fill-opacity:1;fill-rule:nonzero;stroke:none" /></g><g
           transform="translate(445.2041,33.8891)"
           id="g10805"><path
             d="m 0,0 -3.222,0 c 0.503,0.441 0.685,0.987 0.685,1.793 l 0,5.962 c 0,0.805 -0.182,1.37 -0.685,1.813 l 0.221,0 c 0.665,0 1.39,0.08 2.196,0.222 L -0.726,8.259 C 0.243,9.284 1.209,9.79 2.357,9.79 4.43,9.79 5.943,8.42 5.943,6.283 l 0,-4.49 C 5.943,0.987 6.125,0.441 6.627,0 L 3.384,0 c 0.505,0.441 0.685,0.987 0.685,1.793 l 0,3.425 c 0,2.012 -0.664,2.98 -2.356,2.98 -1.794,0 -2.398,-0.887 -2.398,-2.841 l 0,-3.564 C -0.685,0.987 -0.504,0.441 0,0"
             id="path10807"
             style="fill:#004785;fill-opacity:1;fill-rule:nonzero;stroke:none" /></g><g
           transform="translate(455.277,38.9665)"
           id="g10809"><path
             d="m 0,0 c 0,1.932 1.311,3.404 3.143,3.404 1.913,0 3.323,-1.612 3.323,-3.868 0,-2.095 -1.309,-3.547 -3.143,-3.547 C 1.369,-4.011 0,-2.42 0,0 m -2.116,-0.406 c 0,-1.308 0.544,-2.578 1.51,-3.545 1.008,-1.006 2.197,-1.448 3.707,-1.448 1.472,0 2.882,0.542 3.869,1.468 1.047,0.988 1.592,2.278 1.592,3.728 0,1.33 -0.524,2.577 -1.492,3.545 C 6.063,4.35 4.854,4.813 3.363,4.813 1.893,4.813 0.483,4.25 -0.504,3.322 -1.552,2.336 -2.116,1.046 -2.116,-0.406"
             id="path10811"
             style="fill:#004785;fill-opacity:1;fill-rule:nonzero;stroke:none" /></g><g
           transform="translate(468.4519,33.8891)"
           id="g10813"><path
             d="m 0,0 -3.224,0 c 0.503,0.441 0.684,0.987 0.684,1.793 l 0,5.962 c 0,0.805 -0.181,1.37 -0.684,1.813 l 0.222,0 c 0.664,0 1.389,0.08 2.196,0.222 l 0.08,-1.531 C 0.24,9.284 1.207,9.79 2.354,9.79 4.431,9.79 5.942,8.42 5.942,6.283 l 0,-4.49 C 5.942,0.987 6.122,0.441 6.626,0 L 3.383,0 c 0.503,0.441 0.684,0.987 0.684,1.793 l 0,3.425 c 0,2.012 -0.664,2.98 -2.355,2.98 -1.794,0 -2.398,-0.887 -2.398,-2.841 l 0,-3.564 C -0.686,0.987 -0.506,0.441 0,0"
             id="path10815"
             style="fill:#004785;fill-opacity:1;fill-rule:nonzero;stroke:none" /></g><g
           transform="translate(479.7107,40.3754)"
           id="g10817"><path
             d="M 0,0 2.095,5.277 4.03,0 0,0 z m -1.853,-4.635 1.31,3.264 5.097,0 1.168,-3.161 c 0.14,-0.384 0.282,-0.706 0.282,-1.067 0,-0.283 -0.221,-0.505 -0.584,-0.887 l 3.907,0 C 8.38,-5.683 8.059,-4.996 7.778,-4.27 l -4.352,11.441 -3.103,0 C 0.644,6.929 0.806,6.688 0.806,6.345 0.806,6.084 0.727,5.721 0.564,5.337 l -3.846,-9.75 c -0.384,-0.965 -0.767,-1.65 -1.37,-2.073 l 3.223,0 c -0.403,0.382 -0.605,0.684 -0.605,0.965 0,0.303 0.061,0.605 0.181,0.886"
             id="path10819"
             style="fill:#e42432;fill-opacity:1;fill-rule:nonzero;stroke:none" /></g><g
           transform="translate(492.2612,33.8891)"
           id="g10821"><path
             d="m 0,0 -3.202,0 c 0.502,0.441 0.685,0.987 0.685,1.793 l 0,5.962 c 0,0.805 -0.183,1.37 -0.685,1.813 1.006,0.019 1.853,0.08 2.517,0.222 l 0,-7.997 C -0.685,0.987 -0.503,0.441 0,0 m -1.692,13.334 c 0.645,0 1.189,-0.523 1.189,-1.209 0,-0.684 -0.524,-1.207 -1.189,-1.207 -0.685,0 -1.208,0.544 -1.208,1.207 0,0.666 0.542,1.209 1.208,1.209"
             id="path10823"
             style="fill:#e42432;fill-opacity:1;fill-rule:nonzero;stroke:none" /></g><g
           transform="translate(498.4675,41.9866)"
           id="g10825"><path
             d="m 0,0 c -1.368,0 -2.135,-0.948 -2.135,-2.74 l 0,-3.565 c 0,-0.806 0.182,-1.351 0.685,-1.793 l -3.224,0 c 0.503,0.442 0.684,0.987 0.684,1.793 l 0,5.962 c 0,0.805 -0.181,1.37 -0.684,1.813 l 0.223,0 c 0.663,0 1.388,0.08 2.196,0.222 l 0.141,-1.531 c 0.583,1.026 1.31,1.511 2.276,1.511 0.262,0 0.522,-0.039 0.824,-0.1 l 0,-1.894 C 0.684,-0.1 0.382,0 0,0"
             id="path10827"
             style="fill:#e42432;fill-opacity:1;fill-rule:nonzero;stroke:none" /></g><g
           transform="translate(501.3679,31.4916)"
           id="g10829"><path
             d="m 0,0 0,10.152 c 0,0.805 -0.179,1.37 -0.684,1.813 l 0.263,0 c 0.623,0 1.348,0.061 2.173,0.222 l 0.081,-1.531 c 0.989,1.069 2.157,1.612 3.506,1.612 2.639,0 4.712,-2.095 4.712,-4.857 0,-1.81 -0.744,-3.341 -2.034,-4.31 C 7.131,2.437 6.165,2.136 5.076,2.136 4.594,2.136 4.09,2.196 3.567,2.317 L 2.378,4.048 c 0.806,-0.361 1.49,-0.542 2.115,-0.542 2.135,0 3.445,1.309 3.445,3.585 0,2.215 -1.391,3.705 -3.204,3.705 -0.786,0 -1.51,-0.28 -2.074,-0.806 C 1.914,9.306 1.874,8.341 1.874,6.99 l 0,-0.604 0,-6.386 c 0,-0.807 0.181,-1.349 0.685,-1.794 l -3.243,0 C -0.179,-1.349 0,-0.807 0,0"
             id="path10831"
             style="fill:#e42432;fill-opacity:1;fill-rule:nonzero;stroke:none" /></g><g
           transform="translate(514.8259,38.9665)"
           id="g10833"><path
             d="m 0,0 c 0,1.932 1.308,3.404 3.141,3.404 1.914,0 3.325,-1.613 3.325,-3.868 0,-2.095 -1.31,-3.547 -3.142,-3.547 C 1.368,-4.011 0,-2.42 0,0 m -2.117,-0.406 c 0,-1.308 0.545,-2.578 1.511,-3.545 1.008,-1.006 2.197,-1.448 3.707,-1.448 1.471,0 2.881,0.542 3.868,1.468 1.048,0.988 1.593,2.278 1.593,3.728 0,1.33 -0.526,2.577 -1.492,3.545 C 6.063,4.35 4.854,4.813 3.363,4.813 1.893,4.813 0.482,4.25 -0.505,3.322 -1.553,2.336 -2.117,1.046 -2.117,-0.406"
             id="path10835"
             style="fill:#e42432;fill-opacity:1;fill-rule:nonzero;stroke:none" /></g><g
           transform="translate(529.4502,41.9866)"
           id="g10837"><path
             d="m 0,0 c -1.371,0 -2.137,-0.948 -2.137,-2.74 l 0,-3.565 c 0,-0.806 0.183,-1.351 0.686,-1.793 l -3.223,0 c 0.504,0.442 0.684,0.987 0.684,1.793 l 0,5.962 c 0,0.805 -0.18,1.37 -0.684,1.813 l 0.222,0 c 0.665,0 1.39,0.08 2.195,0.222 l 0.142,-1.531 c 0.582,1.026 1.309,1.511 2.276,1.511 0.262,0 0.524,-0.039 0.827,-0.1 l 0,-1.894 C 0.685,-0.1 0.383,0 0,0"
             id="path10839"
             style="fill:#e42432;fill-opacity:1;fill-rule:nonzero;stroke:none" /></g><g
           transform="translate(531.2422,42.0667)"
           id="g10841"><path
             d="m 0,0 0,0.705 c 1.552,0.141 2.517,1.47 2.579,3.748 l 0.586,0 0,-3.063 2.841,0 0,-1.792 C 5.642,-0.08 5.178,0 4.533,0 l -1.368,0 0,-4.652 c 0,-1.674 0.522,-2.478 1.751,-2.478 0.242,0 0.544,0.038 0.887,0.141 L 4.835,-8.401 C 4.613,-8.418 4.412,-8.439 4.21,-8.439 c -1.933,0 -2.898,0.985 -2.898,2.881 L 1.312,0 0,0 z"
             id="path10843"
             style="fill:#e42432;fill-opacity:1;fill-rule:nonzero;stroke:none" /></g><g
           transform="translate(414.091,18.9469)"
           id="g10845"><path
             d="m 0,0 c -0.852,0 -1.187,0.282 -1.187,1 l 0,1.248 c -1.231,-0.336 -1.815,-0.46 -1.815,-1.009 0,-0.425 0.372,-0.734 0.973,-0.734 0.168,0 0.381,0.033 0.629,0.098 l -0.478,-0.65 c -0.195,-0.043 -0.372,-0.07 -0.548,-0.07 -0.877,0 -1.48,0.576 -1.48,1.319 0,0.292 0.106,0.559 0.302,0.762 0.319,0.321 0.796,0.381 1.434,0.533 0.692,0.158 0.973,0.275 0.973,0.593 0,0.354 -0.355,0.6 -0.957,0.6 -0.299,0 -0.67,-0.105 -1.123,-0.325 l 0.566,0.902 c 0.32,0.044 0.576,0.063 0.781,0.063 0.424,0 0.779,-0.099 1.053,-0.302 C -0.444,3.71 -0.39,3.284 -0.39,2.647 l 0,-1.019 c 0,-0.762 0.018,-1.009 0.753,-1.061 L 0,0 z"
             id="path10847"
             style="fill:#004785;fill-opacity:1;fill-rule:nonzero;stroke:none" /></g><g
           transform="translate(420.2625,19.4061)"
           id="g10849"><path
             d="m 0,0 c 0.974,0 1.584,0.628 1.584,1.622 0,0.903 -0.521,1.504 -1.265,1.504 -0.222,0 -0.478,-0.062 -0.78,-0.177 l 0.453,0.804 C 0.159,3.781 0.319,3.8 0.47,3.8 c 1.203,0 1.991,-0.834 1.991,-2.099 0,-1.408 -0.982,-2.346 -2.612,-2.346 -0.424,0 -0.991,0.069 -1.699,0.213 0.22,0.193 0.302,0.441 0.302,0.796 l 0,4.534 c 0,0.352 -0.082,0.602 -0.302,0.796 l 1.125,0 0,-5.509 C -0.505,0.062 -0.275,0 0,0"
             id="path10851"
             style="fill:#004785;fill-opacity:1;fill-rule:nonzero;stroke:none" /></g><g
           transform="translate(427.7613,21.1595)"
           id="g10853"><path
             d="m 0,0 c 0,0.851 0.576,1.497 1.383,1.497 0.841,0 1.46,-0.709 1.46,-1.699 0,-0.924 -0.574,-1.56 -1.38,-1.56 C 0.604,-1.762 0,-1.062 0,0 m -0.927,-0.178 c 0,-0.574 0.238,-1.132 0.662,-1.557 0.443,-0.444 0.965,-0.636 1.629,-0.636 0.649,0 1.268,0.236 1.702,0.645 0.46,0.433 0.699,0.999 0.699,1.638 0,0.583 -0.23,1.134 -0.655,1.559 C 2.667,1.913 2.135,2.117 1.482,2.117 0.835,2.117 0.213,1.87 -0.219,1.462 -0.68,1.027 -0.927,0.461 -0.927,-0.178"
             id="path10855"
             style="fill:#004785;fill-opacity:1;fill-rule:nonzero;stroke:none" /></g><g
           transform="translate(437.7425,18.7884)"
           id="g10857"><path
             d="m 0,0 c -0.548,0.165 -0.77,0.556 -1.027,1.159 l -0.955,2.275 c -0.135,0.31 -0.276,0.619 -0.649,0.912 l 0.134,0 c 0.478,0 0.806,0.043 0.974,0.151 l 1.32,-3.348 1.026,2.285 c 0.079,0.177 0.134,0.318 0.134,0.451 0,0.161 -0.098,0.292 -0.276,0.461 l 1.26,0 L 0,0 z"
             id="path10859"
             style="fill:#004785;fill-opacity:1;fill-rule:nonzero;stroke:none" /></g><g
           transform="translate(444.4988,21.7251)"
           id="g10861"><path
             d="M 0,0 C 0.079,0.63 0.523,1.011 1.169,1.011 1.753,1.011 2.212,0.605 2.25,0 L 0,0 z m -0.061,-0.59 3.249,0 C 3.17,0.772 2.401,1.587 1.223,1.587 c -1.284,0 -2.222,-0.94 -2.222,-2.284 0,-1.312 1.016,-2.251 2.408,-2.251 0.399,0 0.832,0.099 1.311,0.273 l 0.468,0.817 C 2.631,-2.149 2.135,-2.31 1.665,-2.31 c -0.99,0 -1.682,0.646 -1.726,1.72"
             id="path10863"
             style="fill:#004785;fill-opacity:1;fill-rule:nonzero;stroke:none" /></g><g
           transform="translate(459.9159,18.8223)"
           id="g10865"><path
             d="m 0,0 c -0.913,0 -1.576,0.611 -1.576,1.548 l 0,1.968 c 0,0.354 -0.08,0.602 -0.3,0.796 l 0.123,0 c 0.3,0 0.639,0.025 1,0.096 l 0,-2.397 c 0,-0.886 0.293,-1.312 1.036,-1.312 0.787,0 1.055,0.401 1.055,1.257 l 0,1.56 c 0,0.354 -0.081,0.602 -0.302,0.796 l 0.107,0 c 0.326,0 0.655,0.035 1.009,0.096 l 0,-3.406 c 0,-0.356 0.079,-0.596 0.301,-0.79 l -0.081,0 C 2.074,0.212 1.753,0.168 1.398,0.107 L 1.354,0.674 C 0.931,0.222 0.505,0 0,0"
             id="path10867"
             style="fill:#004785;fill-opacity:1;fill-rule:nonzero;stroke:none" /></g><g
           transform="translate(466.407,19.9735)"
           id="g10869"><path
             d="m 0,0 c 0.628,-0.424 1.179,-0.646 1.691,-0.646 0.636,0 1.018,0.274 1.018,0.656 0,0.442 -0.496,0.557 -1.301,0.893 -0.717,0.301 -1.062,0.656 -1.062,1.196 0,0.725 0.601,1.213 1.646,1.213 0.32,0 0.709,-0.044 1.159,-0.143 l 0,-0.752 C 2.701,2.648 2.285,2.753 1.912,2.753 1.461,2.753 1.195,2.544 1.195,2.239 1.195,1.798 1.717,1.752 2.514,1.415 3.249,1.107 3.605,0.743 3.605,0.229 c 0,-0.823 -0.745,-1.434 -2.056,-1.434 -0.433,0 -0.823,0.07 -1.203,0.248 L 0,0 z"
             id="path10871"
             style="fill:#004785;fill-opacity:1;fill-rule:nonzero;stroke:none" /></g><g
           transform="translate(481.2385,21.1595)"
           id="g10873"><path
             d="m 0,0 c 0,0.851 0.577,1.497 1.383,1.497 0.84,0 1.46,-0.709 1.46,-1.699 0,-0.924 -0.574,-1.56 -1.38,-1.56 C 0.604,-1.762 0,-1.062 0,0 m -0.927,-0.178 c 0,-0.574 0.237,-1.132 0.661,-1.557 0.443,-0.444 0.967,-0.636 1.631,-0.636 0.645,0 1.265,0.236 1.7,0.645 0.46,0.433 0.7,0.999 0.7,1.638 0,0.583 -0.232,1.134 -0.656,1.559 C 2.666,1.913 2.136,2.117 1.479,2.117 0.832,2.117 0.214,1.87 -0.22,1.462 -0.681,1.027 -0.927,0.461 -0.927,-0.178"
             id="path10875"
             style="fill:#004785;fill-opacity:1;fill-rule:nonzero;stroke:none" /></g><g
           transform="translate(490.5732,18.9288)"
           id="g10877"><path
             d="m 0,0 -1.417,0 c 0.221,0.193 0.3,0.434 0.3,0.787 l 0,2.622 c 0,0.354 -0.079,0.602 -0.3,0.796 l 0.096,0 c 0.292,0 0.613,0.036 0.967,0.097 L -0.318,3.63 c 0.425,0.45 0.849,0.672 1.353,0.672 0.913,0 1.578,-0.601 1.578,-1.54 l 0,-1.975 C 2.613,0.434 2.691,0.193 2.914,0 L 1.487,0 c 0.222,0.193 0.302,0.434 0.302,0.787 l 0,1.504 c 0,0.888 -0.293,1.312 -1.037,1.312 -0.789,0 -1.053,-0.388 -1.053,-1.249 l 0,-1.567 C -0.301,0.434 -0.222,0.193 0,0"
             id="path10879"
             style="fill:#004785;fill-opacity:1;fill-rule:nonzero;stroke:none" /></g><g
           transform="translate(499.067,18.9288)"
           id="g10881"><path
             d="m 0,0 -1.408,0 c 0.22,0.193 0.3,0.434 0.3,0.787 l 0,4.489 c 0,0.355 -0.08,0.594 -0.3,0.79 l 0.097,0 c 0.239,0 0.567,0.043 1.008,0.106 l 0,-5.385 C -0.303,0.434 -0.221,0.193 0,0"
             id="path10883"
             style="fill:#004785;fill-opacity:1;fill-rule:nonzero;stroke:none" /></g><g
           transform="translate(503.2466,17.8296)"
           id="g10885"><path
             d="m 0,0 c 0.178,-0.104 0.335,-0.159 0.522,-0.159 0.462,0 0.832,0.433 1.108,1.304 C 1.424,1.321 1.257,1.614 1.079,2.02 L 0,4.482 c -0.142,0.319 -0.265,0.611 -0.62,0.822 l 1.159,0 C 0.654,5.172 0.719,5.022 0.779,4.878 L 1.973,2.037 2.905,4.402 c 0.061,0.168 0.097,0.328 0.097,0.476 0,0.135 -0.089,0.277 -0.24,0.426 l 1.222,0 L 2.133,0.595 C 1.772,-0.345 1.125,-0.822 0.23,-0.822 c -0.327,0 -0.665,0.079 -1.027,0.22 L 0,0 z"
             id="path10887"
             style="fill:#004785;fill-opacity:1;fill-rule:nonzero;stroke:none" /></g><g
           transform="translate(517.1399,19.9735)"
           id="g10889"><path
             d="m 0,0 c 0.629,-0.424 1.179,-0.646 1.691,-0.646 0.637,0 1.019,0.274 1.019,0.656 0,0.442 -0.497,0.557 -1.302,0.893 -0.716,0.301 -1.062,0.656 -1.062,1.196 0,0.725 0.602,1.213 1.647,1.213 0.319,0 0.708,-0.044 1.159,-0.143 l 0,-0.752 C 2.701,2.648 2.284,2.753 1.914,2.753 1.461,2.753 1.196,2.544 1.196,2.239 1.196,1.798 1.718,1.752 2.514,1.415 3.25,1.107 3.605,0.743 3.605,0.229 c 0,-0.823 -0.744,-1.434 -2.056,-1.434 -0.433,0 -0.824,0.07 -1.203,0.248 L 0,0 z"
             id="path10891"
             style="fill:#004785;fill-opacity:1;fill-rule:nonzero;stroke:none" /></g><g
           transform="translate(528.564,23.134)"
           id="g10893"><path
             d="m 0,0 -1.454,-1.778 1.381,-1.78 C 0,-3.656 0.221,-3.869 0.557,-4.205 l -0.788,0 -0.061,0 c -0.32,0 -0.506,0.186 -0.744,0.514 l -1.312,1.831 0.894,1.018 c 0.195,0.231 0.287,0.427 0.287,0.532 0,0.09 -0.046,0.197 -0.125,0.31 L 0,0 z m -3.347,-3.418 0,4.489 c 0,0.355 -0.081,0.594 -0.301,0.79 l 0.08,0 c 0.284,0 0.628,0.043 1.034,0.105 l 0,-5.384 c 0,-0.354 0.081,-0.594 0.301,-0.787 l -1.415,0 c 0.22,0.193 0.301,0.433 0.301,0.787"
             id="path10895"
             style="fill:#004785;fill-opacity:1;fill-rule:nonzero;stroke:none" /></g><g
           transform="translate(532.7965,17.8296)"
           id="g10897"><path
             d="m 0,0 c 0.176,-0.104 0.336,-0.159 0.522,-0.159 0.461,0 0.832,0.433 1.107,1.304 C 1.425,1.321 1.258,1.614 1.08,2.02 L 0,4.482 c -0.143,0.319 -0.265,0.611 -0.619,0.822 l 1.158,0 C 0.656,5.172 0.717,5.022 0.78,4.878 L 1.975,2.037 2.903,4.402 c 0.062,0.168 0.098,0.328 0.098,0.476 0,0.135 -0.089,0.277 -0.239,0.426 l 1.222,0 -1.849,-4.709 c -0.364,-0.94 -1.01,-1.417 -1.906,-1.417 -0.326,0 -0.663,0.079 -1.026,0.22 L 0,0 z"
             id="path10899"
             style="fill:#004785;fill-opacity:1;fill-rule:nonzero;stroke:none" /></g><g
           transform="translate(579.8495,47.557)"
           id="g10901"><path
             d="m 0,0 c -0.027,0.233 -0.094,0.505 -0.064,0.738 -0.148,0.806 -0.217,1.285 -0.27,2.119 -0.214,0.478 -0.214,0.998 -0.399,1.409 -0.16,0.984 -0.613,1.9 -1.172,2.774 -0.055,0.261 -0.269,0.507 -0.481,0.657 -0.092,0.302 -0.293,0.604 -0.56,0.835 -0.026,0.382 -0.399,0.452 -0.612,0.696 -0.359,0.261 -0.387,0.848 -0.906,0.889 -0.389,0.371 -0.774,0.864 -1.28,1.094 -0.12,0.396 -0.573,0.343 -0.708,0.725 -0.544,0.151 -0.865,0.766 -1.412,0.971 -0.519,0.232 -0.746,1.039 -1.386,0.833 -0.373,-0.587 0.094,-1.284 0.04,-1.872 0.093,-0.301 0.292,-0.603 0.174,-0.931 -0.574,-0.082 -0.508,0.617 -0.947,0.863 -0.12,0.355 -0.399,0.684 -0.665,0.983 -0.402,0.342 -0.908,0.014 -1.281,0.342 -0.16,0.274 -0.439,0.343 -0.654,0.534 -0.304,0.069 -0.318,0.561 -0.706,0.424 -0.172,0.3 -0.477,0.383 -0.798,0.409 -0.054,0.18 -0.255,0.192 -0.374,0.247 -0.2,-0.179 -0.466,-0.179 -0.599,-0.437 -0.081,-0.109 0,-0.219 -0.067,-0.314 -0.119,-0.494 0.079,-0.972 0.079,-1.45 -0.172,-0.738 0.52,-1.408 0.148,-2.174 -0.186,-0.192 -0.173,-0.438 -0.267,-0.655 0.119,-0.33 -0.119,-0.795 0.212,-1.039 0.374,-0.084 0.322,0.355 0.481,0.558 -0.065,0.233 -0.026,0.369 0.132,0.535 0.068,0.054 0.201,0.054 0.28,0 0.307,-0.314 0.496,-0.712 0.642,-1.108 0.039,-0.178 0.212,-0.343 0.093,-0.506 0.052,-0.219 0.199,-0.464 0.426,-0.602 l 0.186,-0.779 c 0.255,-0.478 0.52,-0.985 0.481,-1.545 0.372,-0.589 0.2,-1.368 0.386,-2.024 l -0.054,-0.056 c -0.132,0.275 -0.173,0.631 -0.439,0.823 0,0.122 -0.014,0.205 -0.068,0.327 -0.478,0.397 -0.399,1.107 -0.999,1.394 -0.134,0.055 -0.333,0.206 -0.414,-0.027 -0.12,-0.37 0.28,-0.588 0.375,-0.916 -0.052,-0.11 -0.147,-0.014 -0.214,-0.014 -0.36,-0.109 -0.692,-0.177 -1,-0.383 -0.066,-0.109 -0.16,-0.258 -0.294,-0.3 -0.305,-0.028 -0.731,0.096 -1.093,0.027 -0.426,0.097 -0.745,-0.097 -1.132,-0.097 -0.279,-0.203 -0.559,-0.011 -0.88,-0.066 -0.145,-0.056 -0.106,-0.191 -0.12,-0.303 -0.039,-0.341 0.386,-0.368 0.56,-0.545 -0.119,-0.286 -0.119,-0.562 -0.065,-0.861 0.307,-0.369 0.226,-0.944 0.159,-1.384 0.148,-0.354 -0.013,-0.737 0.173,-1.091 0.227,-0.302 -0.146,-0.507 -0.025,-0.836 0.212,-0.423 -0.134,-0.971 0.212,-1.312 l 0.027,-0.409 c -0.079,-0.52 0.226,-0.999 -0.027,-1.464 -0.24,-0.383 -0.561,-0.286 -0.919,-0.232 -0.467,0.191 -0.987,0.288 -1.441,0.547 -0.319,-0.014 -0.626,0.094 -0.932,0.178 -0.213,-0.137 -0.599,-0.084 -0.599,-0.437 0.053,-0.521 0.533,-0.192 0.879,-0.288 l 0.974,-0.519 0.237,-0.057 c 0.522,-0.23 1.173,-0.354 1.774,-0.341 0.254,0.219 0.761,0.246 0.787,0.684 0.04,0.398 0.161,0.93 0.147,1.366 0.145,0.302 -0.147,0.507 -0.134,0.795 0.053,0.232 -0.201,0.395 -0.068,0.628 -0.238,0.37 0.016,0.918 -0.159,1.284 -0.066,0.494 0.093,1.013 -0.146,1.493 -0.027,0.286 -0.094,0.628 -0.119,0.874 0.105,0.233 0,0.615 0.013,0.889 -0.081,0.234 -0.215,0.41 -0.308,0.657 0.054,0.053 0.108,0.082 0.174,0.095 0.213,0.206 0.453,0.124 0.706,0.192 0.24,-0.179 0.587,0.027 0.813,-0.179 0.227,-0.164 -0.066,-0.408 -0.053,-0.601 0,-0.561 0,-1.215 0.294,-1.722 0.332,-0.233 0.625,-0.589 1.013,-0.548 0.279,0.152 0.599,-0.013 0.878,0.084 0.52,-0.071 0.693,0.545 0.987,0.832 0.321,0.315 0.359,0.793 0.586,1.19 0.199,-0.849 0.333,-1.763 0.254,-2.679 0.146,-0.328 0.239,-0.672 0.159,-1.041 l 0.241,-0.519 c -0.241,-0.724 0.078,-1.326 0.093,-1.995 l 0.145,-0.207 c 0.095,-0.574 0.362,-1.188 0.147,-1.765 -0.012,-0.328 0.095,-0.613 -0.039,-0.901 0.108,-0.15 0.067,-0.327 0.094,-0.477 -0.015,-0.316 0.093,-0.589 0.078,-0.876 0.162,-0.259 -0.118,-0.506 -0.025,-0.75 -0.12,-0.178 0.025,-0.481 -0.068,-0.672 0.055,-0.535 0.093,-1.327 0.043,-1.969 -0.122,-0.219 0,-0.411 0.037,-0.587 0.054,-0.315 0.107,-0.63 0.081,-1.014 0.146,-0.163 0.212,-0.463 0.48,-0.436 0.494,0.123 0.599,0.697 0.786,1.081 0.026,0.123 0,0.204 0.081,0.314 0.078,0.561 0.425,1.038 0.318,1.655 0.159,0.177 0.175,0.449 0.107,0.67 0.094,0.259 0.175,0.437 0.119,0.711 l 0.017,-0.014 -0.028,0.027 c 0.028,0.123 0.052,0.246 0.079,0.369 -0.012,0.084 -0.107,0.18 -0.027,0.26 -0.134,0.178 0.053,0.395 0.039,0.587 -0.08,0.371 0.028,0.711 -0.091,1.039 -0.108,0.232 0.052,0.52 -0.04,0.738 0.04,0.369 -0.107,0.726 -0.188,1.108 0.12,0.479 -0.16,0.917 -0.066,1.299 -0.213,0.669 -0.147,1.475 -0.427,2.145 -0.052,0.139 0.04,0.277 -0.08,0.386 -0.066,0.315 -0.147,0.834 -0.547,0.93 -0.174,-0.07 -0.079,-0.287 -0.146,-0.424 0.214,-0.438 0.347,-0.892 0.466,-1.341 0.134,-1.052 0.307,-2.011 0.347,-3.062 -0.159,-0.18 0.041,-0.357 0.014,-0.548 0.053,-1.571 0.094,-3.171 -0.267,-4.649 -0.106,0.068 -0.187,0 -0.294,0 0,0.179 -0.066,0.342 -0.052,0.561 0.092,0.355 0,0.766 0.092,1.151 -0.026,0.162 -0.092,0.258 -0.066,0.423 0.133,0.464 -0.146,0.832 -0.253,1.256 -0.12,0.397 0.159,0.793 0.066,1.176 0.041,0.45 -0.012,0.835 -0.053,1.244 -0.226,0.22 -0.013,0.575 -0.186,0.822 -0.401,0.56 -0.106,1.296 -0.2,1.927 -0.146,0.56 -0.161,1.08 -0.24,1.627 -0.227,0.602 -0.146,1.176 -0.253,1.736 -0.308,0.506 0.066,1.08 -0.308,1.545 0,0.493 -0.253,0.875 -0.199,1.366 0.014,0.152 0.04,0.331 -0.066,0.48 0,0.588 -0.281,1.066 -0.294,1.641 -0.265,0.316 -0.187,0.794 -0.493,1.107 -0.267,0.276 -0.039,0.739 -0.452,0.959 -0.134,0.19 -0.027,0.505 -0.214,0.655 -0.4,0.055 -0.266,0.533 -0.64,0.642 -0.4,0.506 -0.493,1.095 -0.76,1.669 0.146,0.247 -0.147,0.424 -0.067,0.724 -0.172,0.301 -0.038,0.67 -0.011,0.985 0.052,0.138 0.186,0.205 0.318,0.247 0.655,-0.166 1.148,-0.671 1.638,-1.149 0.336,-0.083 0.574,-0.356 0.815,-0.629 0.574,-0.328 0.92,-1.025 1.426,-1.478 0.547,-0.614 0.332,-1.614 0.999,-2.146 0.093,-0.07 0.24,-0.097 0.333,0.014 0.226,0.342 -0.306,0.478 -0.159,0.832 0.733,-0.325 0.678,-1.228 1.253,-1.694 0.105,-0.273 0.293,-0.518 0.412,-0.781 0.333,-0.313 0.401,-0.736 0.64,-1.105 0.12,-0.096 0.307,-0.057 0.401,0.054 0.266,0.027 0.291,-0.315 0.478,-0.449 -0.027,-0.316 0.134,-0.535 0.32,-0.754 0.067,-0.068 0.241,-0.055 0.282,0.083 0.093,0.178 -0.014,0.382 -0.068,0.573 0.2,0.669 -0.666,0.956 -0.721,1.572 -0.065,0.138 0.081,0.289 -0.078,0.412 -0.067,0.368 -0.481,0.628 -0.68,0.942 -0.399,0.315 -0.267,0.903 -0.773,1.066 -0.119,0.343 -0.293,0.712 -0.547,1.012 -0.213,0.274 -0.026,0.589 -0.159,0.862 -0.215,0.37 -0.162,0.793 -0.225,1.216 -0.028,0.097 0.063,0.042 0.13,0.082 1.093,-0.764 2.134,-1.791 3.307,-2.542 0.146,-0.343 0.573,-0.424 0.746,-0.753 0.72,-0.342 0.906,-1.188 1.518,-1.641 0.427,-0.71 0.828,-1.449 1.134,-2.215 0.441,-0.724 0.467,-1.653 0.761,-2.419 0.199,-0.341 0.012,-0.848 0.158,-1.203 0.067,-0.876 -0.052,-1.751 -0.038,-2.585 -0.335,-0.929 -0.108,-1.927 -0.493,-2.829 -0.041,-0.343 -0.268,-0.944 -0.361,-1.204 -0.188,-0.192 -0.199,0.219 -0.227,0.219 -0.066,0.096 -0.039,0.081 -0.039,0.191 -0.067,0.081 -0.174,0.451 -0.2,0.711 -0.135,0.753 -0.04,1.436 -0.614,1.996 -0.106,0 -0.32,-0.013 -0.387,-0.177 -0.132,0.164 -0.027,0.3 -0.106,0.491 -0.172,0.246 -0.226,0.631 -0.452,0.862 -0.068,0.123 -0.028,0.247 0,0.384 C -3.785,0.123 -4.052,0.464 -4,0.848 -3.678,1.38 -4.077,1.886 -4.33,2.325 -4.291,2.871 -4.573,3.322 -4.809,3.759 -4.932,3.977 -4.943,4.361 -5.29,4.306 -5.383,4.266 -5.517,4.183 -5.531,4.074 -5.517,3.774 -5.343,3.446 -5.211,3.158 -4.957,2.844 -5.343,2.693 -5.278,2.407 -5.065,2.133 -5.038,1.833 -4.983,1.544 -4.706,0.998 -4.904,0.3 -4.638,-0.26 l 0.054,-1.71 c 0.145,-0.561 -0.16,-1.215 -0.106,-1.763 -0.081,-0.657 -0.375,-1.245 -0.6,-1.859 -0.121,-0.152 -0.214,-0.083 -0.32,0.04 -0.134,0.493 -0.148,1.191 0.065,1.723 0.134,0.52 -0.078,1.053 0.054,1.531 0.24,0.535 -0.04,1.123 0.213,1.627 0.201,0.437 -0.267,0.794 0,1.191 -0.146,0.546 0,1.134 -0.226,1.694 C -5.424,2.558 -5.57,2.98 -5.57,3.35 -5.731,3.582 -5.783,3.787 -5.825,4.074 -5.945,4.251 -6.144,4.47 -6.05,4.716 -5.93,4.949 -6.185,5.141 -6.291,5.332 -6.424,5.456 -6.557,5.263 -6.69,5.305 -6.744,5.277 -6.798,5.21 -6.798,5.141 -6.571,4.797 -6.65,4.442 -6.611,4.047 -6.172,3.637 -6.317,2.911 -6.237,2.418 -6.13,1.928 -6.224,1.408 -5.97,0.971 -6.039,0.656 -5.904,0.313 -5.985,0.027 c -0.065,-0.588 -0.038,-1.12 -0.2,-1.682 -0.106,-0.835 -0.2,-1.64 -0.267,-2.475 -0.21,-0.766 -0.279,-1.723 0.055,-2.46 0.133,-0.219 0.092,-0.534 0.347,-0.686 0.16,-0.109 0.306,-0.162 0.48,-0.079 0.119,0.163 0.384,0.149 0.398,0.38 0.466,0.534 0.773,0.985 1.08,1.614 -0.027,0.095 0.015,0.234 0.092,0.302 0.148,0.3 0.148,0.794 0.322,1.161 l 0.038,-0.04 c 0.203,-0.712 0.415,-1.409 0.44,-2.217 0.042,-1.037 0.282,-2.281 -0.012,-3.307 0,-1.244 -0.267,-2.5 -1.079,-3.445 -0.108,-0.48 -0.732,-0.697 -0.692,-1.217 0.051,-0.11 0.174,-0.191 0.293,-0.205 0.559,0.067 0.959,0.534 1.278,1.011 0.146,0.342 0.322,0.767 0.454,1.081 0.518,1.148 0.732,2.312 0.998,3.376 0.042,0.765 0.348,1.04 0.44,1.791 l 0.015,-0.013 c 0.038,0.136 0.014,0.286 0.106,0.409 0.146,0.33 0.161,0.616 0.291,0.848 0.082,0.178 0.029,0.261 0.109,0.37 l -0.027,0.028 c 0.054,0.245 0.161,0.615 0.255,0.916 0.173,0.519 0.223,1.051 0.398,1.544 -0.027,0.505 0.174,0.969 0.146,1.463 0.054,0.521 0.241,0.971 0.214,1.532 L 0,0 z m -12.929,1.845 c -0.398,-0.124 -0.479,-0.739 -0.984,-0.561 -0.2,0.084 -0.574,0.057 -0.615,0.397 -0.293,0.286 -0.158,0.669 -0.254,1.012 0,0.37 0.308,0.587 0.36,0.957 0.135,0.231 0.36,0.287 0.574,0.369 l 0.493,0.316 c 0.294,-0.138 0.308,-0.521 0.508,-0.753 -0.082,-0.179 0.026,-0.369 0.065,-0.575 -0.092,-0.34 0.081,-0.834 -0.147,-1.162 m 9.904,-6.147 -0.052,0.069 0.04,-0.03 c 0.026,0.095 0.038,0.03 0.038,-0.027 l -0.026,-0.012 z"
             id="path10903"
             style="fill:#004785;fill-opacity:1;fill-rule:nonzero;stroke:none" /></g><g
           transform="translate(558.2574,56.1153)"
           id="g10905"><path
             d="M 0,0 C 0.201,0.233 0.108,0.493 0,0.739 -0.064,0.959 -0.332,0.863 -0.477,0.917 -0.679,0.931 -0.906,0.848 -1.05,0.696 -1.305,0.644 -1.398,0.301 -1.627,0.192 -1.745,-0.177 -2.104,-0.274 -2.184,-0.629 -2.413,-0.805 -2.573,-1.08 -2.705,-1.368 -3.118,-1.64 -3.185,-2.201 -3.531,-2.502 -3.704,-2.776 -3.784,-3.117 -3.97,-3.364 c -0.121,-0.205 -0.134,-0.397 -0.173,-0.628 -0.254,-0.383 -0.414,-0.807 -0.548,-1.244 -0.294,-0.439 -0.106,-0.931 -0.44,-1.368 0.162,-0.436 -0.293,-0.806 -0.173,-1.23 -0.186,-0.67 -0.173,-1.505 -0.28,-2.243 0.175,-0.491 -0.321,-0.86 -0.146,-1.244 -0.16,-0.343 0.079,-0.738 0,-1.066 -0.107,-0.123 0.028,-0.287 -0.041,-0.397 0.026,-0.425 -0.199,-0.862 0,-1.286 -0.012,-0.435 0.228,-0.998 0.094,-1.49 0.214,-0.451 -0.025,-0.942 0.214,-1.394 -0.147,-0.274 0.199,-0.45 -0.054,-0.709 -0.107,0.012 -0.185,0.176 -0.266,0.218 -0.187,0.423 -0.588,0.585 -0.788,0.996 -0.492,0.931 -1.038,1.916 -1.506,2.886 -0.266,0.273 -0.332,0.698 -0.506,0.984 -0.132,0.493 -0.385,0.972 -0.533,1.465 0.014,0.557 -0.372,1.078 -0.506,1.639 -0.187,0.397 -0.12,0.808 -0.24,1.23 0.014,0.453 0.08,1.095 0.12,1.519 -0.133,0.615 0.172,0.997 0.172,1.559 0.149,0.396 0.32,0.806 0.346,1.243 0.27,0.425 0.468,0.821 0.602,1.299 0.826,0.818 1.573,1.764 2.384,2.543 0.322,0.122 0.442,0.587 0.814,0.67 0.575,0.794 1.412,1.135 2.081,1.764 0.357,0.014 0.439,0.383 0.733,0.52 0.464,0.272 0.947,0.573 1.437,0.82 0.068,0.246 0.213,0.492 0.242,0.766 C -0.946,4.567 -1.05,4.636 -1.173,4.607 -1.411,4.403 -1.812,4.513 -1.945,4.184 -2.158,4.005 -2.491,3.953 -2.637,3.706 -3.104,3.419 -3.557,3.174 -3.984,2.829 -4.157,2.682 -4.317,2.473 -4.531,2.422 -5.051,1.929 -5.635,1.423 -6.143,1.026 -6.277,0.78 -6.542,0.602 -6.717,0.356 -6.942,0.328 -7.037,0.123 -7.183,-0.026 -7.503,-0.108 -7.556,-0.492 -7.756,-0.711 -7.917,-0.82 -8.115,-0.929 -8.13,-1.135 c -0.173,-0.354 -0.506,-0.548 -0.745,-0.833 -0.174,-0.396 -0.666,-0.411 -0.774,-0.82 -0.547,-0.329 -0.492,-1.026 -0.933,-1.381 -0.026,-0.275 -0.267,-0.397 -0.346,-0.643 -0.242,-0.109 -0.267,-0.396 -0.427,-0.603 -0.132,-0.122 -0.214,-0.287 -0.294,-0.464 -0.172,-0.055 -0.172,-0.218 -0.278,-0.341 -0.028,-0.316 -0.333,-0.44 -0.361,-0.726 -0.213,-0.328 -0.4,-0.641 -0.6,-0.93 -0.079,-0.082 0.028,-0.19 -0.094,-0.231 -0.011,-0.232 -0.171,-0.412 -0.292,-0.588 -0.053,-0.22 -0.199,-0.424 -0.293,-0.644 -0.227,-0.409 -0.293,-0.972 -0.653,-1.327 -0.174,-0.628 -0.2,-1.285 -0.654,-1.803 0.12,-0.205 -0.08,-0.342 -0.014,-0.548 -0.185,-0.34 -0.145,-0.791 -0.173,-1.161 0.094,-0.165 -0.173,-0.275 -0.079,-0.479 -0.108,-0.204 0.134,-0.507 0.026,-0.738 0.134,-0.439 0.067,-1.135 0.015,-1.585 0.159,-0.151 0.159,-0.384 0.239,-0.562 -0.028,-0.355 0.12,-0.695 0.12,-1.039 0.133,-0.26 -0.134,-0.506 -0.028,-0.778 0.028,-0.194 0.255,-0.302 0.428,-0.371 0.147,-0.137 0.147,-0.342 0.186,-0.534 0,-0.177 0.186,-0.217 0.308,-0.162 0.092,-0.452 0.384,-0.808 0.651,-1.136 0.213,-0.07 0.335,-0.245 0.547,-0.383 0.388,-0.191 0.747,-0.546 1.147,-0.518 0.331,-0.084 0.626,-0.014 0.893,0.121 0.172,0.042 0.159,0.302 0.359,0.275 0.281,0.369 0.547,0.738 0.679,1.189 0.082,0.217 0.121,0.533 0.215,0.793 -0.041,0.642 0.12,1.123 0.092,1.764 -0.039,0.424 -0.158,0.739 -0.107,1.123 -0.171,0.614 0.068,1.077 -0.146,1.626 -0.067,0.122 -0.106,0.423 -0.293,0.34 -0.093,-0.068 -0.093,-0.205 -0.106,-0.313 -0.188,-0.424 -0.121,-0.915 0,-1.354 -0.188,-0.41 -0.134,-0.82 -0.053,-1.231 -0.173,-0.711 -0.028,-1.449 -0.294,-2.16 -0.24,-0.26 -0.121,-0.67 -0.361,-0.956 -0.106,-0.137 -0.266,-0.165 -0.426,-0.111 -0.225,-0.067 -0.6,-0.097 -0.878,0.055 -0.641,0.48 -1.16,1.024 -1.614,1.641 -0.133,0.233 -0.119,0.477 -0.227,0.752 -0.067,0.068 -0.105,0.137 -0.054,0.218 -0.091,0.329 -0.146,0.794 -0.146,1.136 0.08,0.357 -0.08,0.682 -0.133,0.997 0.08,0.205 -0.16,0.37 -0.146,0.561 l 0.027,0.028 -0.027,0.026 c 0.04,0.192 -0.014,0.398 0,0.561 0.214,0.41 -0.093,0.807 0.107,1.188 0.039,-0.012 0.107,-0.067 0.133,0 0,0.071 0.067,0.37 -0.066,0.439 -0.067,0.109 0.105,0.109 0.105,0.192 0.055,0.369 0.014,0.793 0.067,1.203 -0.039,0.63 0.293,1.188 0.466,1.721 0.253,0.467 0.348,0.959 0.695,1.394 0.119,0.48 0.373,0.836 0.613,1.259 0.144,0.276 0.333,0.563 0.517,0.822 0.136,0.464 0.521,0.778 0.788,1.202 0.038,0.083 0.147,0 0.16,-0.055 0.066,-0.369 0,-0.778 0.16,-1.161 -0.04,-0.245 -0.014,-0.369 -0.04,-0.602 0.054,-0.545 -0.014,-1.052 0.04,-1.598 -0.028,-0.151 -0.08,-0.342 -0.08,-0.466 0.08,-0.288 0.08,-0.574 0.12,-0.862 l 0.093,-0.123 c 0.16,-0.082 0.347,0.028 0.427,0.179 0.254,0.011 0.186,-0.356 0.293,-0.506 0.174,-0.835 0.561,-1.327 0.826,-2.161 0.145,-0.261 0.187,-0.588 0.44,-0.819 -0.013,-0.425 0.321,-0.521 0.44,-0.904 0.093,-0.109 -0.014,-0.355 0.173,-0.383 0.359,-0.546 0.628,-1.188 0.919,-1.792 0.428,-0.423 0.413,-0.969 0.76,-1.395 0.042,-0.081 0.268,-0.053 0.186,-0.231 0.215,-0.382 0.401,-0.792 0.547,-1.203 0.429,-0.477 0.614,-1.08 0.706,-1.736 0.307,-0.383 0.293,-1.259 1.001,-1.136 0.134,0.042 0.2,0.166 0.215,0.301 -0.095,0.247 0.105,0.63 -0.055,0.835 -0.08,0.356 -0.2,0.739 -0.347,1.081 -0.64,0.887 -0.747,1.981 -0.879,3.006 -0.279,0.985 -0.175,2.023 -0.386,3.023 0.027,0.862 -0.267,1.75 0.065,2.527 -0.025,0.713 -0.025,1.425 0.069,2.149 0,0.191 0.106,0.451 0.092,0.655 0.16,1.505 0.333,2.831 0.893,4.199 0.215,0.493 0.32,0.943 0.548,1.463 0.119,0.178 0.276,0.341 0.344,0.56 0.468,0.697 0.761,1.45 1.387,2.024 0.255,0.423 0.625,0.78 0.96,1.133 C -0.467,0.328 -0.266,-0.177 0,0"
             id="path10907"
             style="fill:#004785;fill-opacity:1;fill-rule:nonzero;stroke:none" /></g><g
           transform="translate(560.4982,50.0717)"
           id="g10909"><path
             d="M 0,0 C 0.131,0.368 0.48,0.59 0.627,0.97 0.627,1.436 0.613,1.943 0.571,2.407 0.558,2.844 0.239,3.227 0.172,3.664 -0.028,3.87 -0.186,4.253 -0.481,4.334 -0.6,4.322 -0.64,4.212 -0.654,4.104 L -0.186,3.118 C -0.093,2.435 -0.014,1.547 -0.214,0.904 -0.373,0.603 -0.761,0.59 -0.88,0.262 -1.107,0.152 -1.213,-0.04 -1.427,-0.149 -1.8,-0.232 -2.092,-0.205 -2.479,-0.219 c -0.322,-0.013 -0.48,0.329 -0.588,0.576 -0.173,0.779 0.148,1.586 0.748,2.187 0.48,0.179 0.746,0.765 1.305,0.683 0.148,0 0.242,0.109 0.267,0.247 -0.119,0.122 -0.2,0.301 -0.372,0.301 C -1.333,3.692 -1.667,3.734 -1.853,3.706 -2.174,3.502 -2.467,3.242 -2.787,3.022 -2.931,2.803 -3.118,2.667 -3.305,2.489 -3.358,1.955 -3.946,1.586 -3.785,0.984 c -0.134,-0.45 -0.134,-0.915 0.08,-1.34 0.334,-0.339 0.758,-0.71 1.278,-0.695 0.494,-0.029 0.973,0.08 1.386,0.3 C -0.772,-0.313 -0.293,-0.424 0,0"
             id="path10911"
             style="fill:#004785;fill-opacity:1;fill-rule:nonzero;stroke:none" /></g><g
           transform="translate(548.5157,43.9183)"
           id="g10913"><path
             d="M 0,0 -0.068,0.383 C -0.146,0.494 -0.054,0.63 -0.173,0.738 -0.266,0.863 -0.442,0.917 -0.56,0.823 -0.72,0.59 -0.628,0.397 -0.653,0.111 c -0.094,-0.205 0.039,-0.439 0,-0.672 0.267,-0.38 -0.027,-0.955 0.387,-1.256 0.066,-0.042 0.132,-0.029 0.198,0.013 0.36,0.547 0,1.231 0.068,1.804"
             id="path10915"
             style="fill:#004785;fill-opacity:1;fill-rule:nonzero;stroke:none" /></g><g
           transform="translate(548.2499,41.5125)"
           id="g10917"><path
             d="M 0,0 C 0,-0.111 0.132,-0.163 0.198,-0.15 0.266,-0.136 0.279,-0.067 0.279,0 0.279,0.069 0,0.206 0,0"
             id="path10919"
             style="fill:#004785;fill-opacity:1;fill-rule:nonzero;stroke:none" /></g><g
           transform="translate(559.4038,36.057)"
           id="g10921"><path
             d="m 0,0 c -0.145,-0.026 -0.36,-0.026 -0.492,0.096 -0.198,0.042 -0.4,0.096 -0.587,-0.04 -0.08,-0.136 -0.213,-0.301 -0.16,-0.452 0.307,-0.629 1.052,-0.218 1.548,-0.409 0.345,-0.014 0.652,0.164 0.972,0.231 0.172,0.095 0.081,0.258 0.081,0.41 C 1.12,0.411 0.401,-0.149 0,0"
             id="path10923"
             style="fill:#004785;fill-opacity:1;fill-rule:nonzero;stroke:none" /></g><g
           transform="translate(577.6924,33.6191)"
           id="g10925"><path
             d="M 0,0 C 0,0.335 0.254,0.588 0.58,0.588 0.903,0.588 1.159,0.335 1.159,0 1.159,-0.347 0.903,-0.6 0.58,-0.6 0.254,-0.6 0,-0.347 0,0 m 0.58,-0.719 c 0.389,0 0.721,0.303 0.721,0.719 0,0.406 -0.332,0.708 -0.721,0.708 -0.392,0 -0.725,-0.302 -0.725,-0.708 0,-0.416 0.333,-0.719 0.725,-0.719 m 0.248,0.582 C 0.809,-0.241 0.723,-0.314 0.605,-0.314 c -0.172,0 -0.278,0.145 -0.278,0.315 0,0.175 0.094,0.309 0.271,0.309 0.12,0 0.207,-0.069 0.23,-0.17 l 0.126,0 C 0.927,0.33 0.778,0.435 0.597,0.435 0.342,0.435 0.184,0.249 0.184,0 c 0,-0.246 0.164,-0.44 0.421,-0.44 0.173,0 0.314,0.115 0.351,0.303 l -0.128,0 z"
             id="path10927"
             style="fill:#004785;fill-opacity:1;fill-rule:nonzero;stroke:none" /></g></g></g></g></svg>