<?xml version="1.0" encoding="UTF-8"?><svg id="Layer_1" xmlns="http://www.w3.org/2000/svg" viewBox="0 0 86.35 21.87"><defs><style>.cls-1{fill:#e63a17;}.cls-2{fill:#fff;}</style></defs><path class="cls-2" d="M8.46,10.93s-.06-.04-.1-.05h-.02s-.1-.07-.16-.1h-.02c-.05-.03-.1-.06-.16-.08l-.05-.02s-.08-.03-.12-.05c-.03-.01-.07-.03-.1-.04-.03-.01-.06-.02-.09-.03-.03-.01-.07-.02-.1-.03l-.05-.02c-.08-.02-.16-.04-.23-.06h-.04s-.07-.02-.1-.03c-.03,0-.06-.01-.09-.02-.03,0-.07-.01-.1-.02-.03,0-.07,0-.1-.01-.04,0-.07,0-.1-.01-.04,0-.08,0-.13,0h-.08c-.07,0-.14,0-.21,0-1.03,0-1.94-.58-2.38-1.48.75-.31,1.55-.47,2.38-.47,3.61,0,6.51,3.06,6.27,6.72-.21,3.1-2.71,5.61-5.81,5.83-3.38.24-6.27-2.21-6.69-5.47h.09c1,0,1.9.55,2.41,1.41.76,1.28,2.15,2.13,3.74,2.13,2.39,0,4.34-1.94,4.34-4.34,0-1.34-.6-2.63-1.67-3.41-.12-.09-.49-.34-.49-.34"/><path class="cls-2" d="M6.28,14.01C2.62,14.01-.32,10.86.03,7.13.29,4.3,2.48,1.97,5.29,1.53c3.68-.58,6.94,2.14,7.25,5.67-1.02,0-1.94-.58-2.42-1.49-.74-1.42-2.25-2.36-3.98-2.3-2.18.07-4,1.8-4.18,3.97-.21,2.55,1.81,4.7,4.32,4.7.08,0,.16,0,.24,0,.94.09,1.74.65,2.13,1.49-.75.31-1.55.47-2.38.47"/><rect class="cls-1" x="19.27" width=".49" height="21.87"/><path class="cls-2" d="M28.89,2.86c-.25-.42-.57-.64-1.09-.64-.54,0-1.13.37-1.13.96,0,.53.52.81.94.97l.48.19c.96.38,1.68.91,1.68,2.04,0,1.23-.95,2.11-2.16,2.11-1.09,0-1.95-.81-2.09-1.89l.85-.18c0,.74.58,1.28,1.31,1.28s1.25-.61,1.25-1.32-.58-1.04-1.17-1.28l-.47-.2c-.77-.33-1.47-.77-1.47-1.71,0-1.09.97-1.75,1.99-1.75.75,0,1.37.37,1.74,1.02l-.67.4Z"/><polygon class="cls-2" points="33.34 7.57 35.4 7.57 35.4 8.34 32.5 8.34 32.5 1.58 33.34 1.58 33.34 7.57"/><path class="cls-2" d="M38.71,6.64l-.77,1.7h-.91l3.23-7.05,3.23,7.05h-.91l-.77-1.7h-3.1ZM40.26,3.14l-1.2,2.74h2.4l-1.2-2.74Z"/><polygon class="cls-2" points="47 6.58 49.01 1.58 49.94 1.58 47 8.7 44.06 1.58 44.99 1.58 47 6.58"/><polygon class="cls-2" points="52.31 1.58 55.94 1.58 55.94 2.35 53.15 2.35 53.15 4.24 55.86 4.24 55.86 5.01 53.15 5.01 53.15 7.57 55.94 7.57 55.94 8.34 52.31 8.34 52.31 1.58"/><rect class="cls-2" x="58.64" y="5.13" width="1.96" height=".67"/><polygon class="cls-2" points="64.38 2.35 64.38 4.25 66.73 4.25 66.73 5.02 64.38 5.02 64.38 8.34 63.53 8.34 63.53 1.58 66.81 1.58 66.81 2.35 64.38 2.35"/><path class="cls-2" d="M73.8,8.34h-1.02l-1.99-2.86h-.35v2.86h-.84V1.58h1.02c.6,0,1.25,0,1.79.31.57.33.89.97.89,1.61,0,.97-.65,1.78-1.62,1.89l2.13,2.94ZM70.43,4.78h.27c.86,0,1.79-.16,1.79-1.24s-1-1.21-1.84-1.21h-.22v2.45Z"/><polygon class="cls-2" points="76.25 1.58 79.89 1.58 79.89 2.35 77.1 2.35 77.1 4.24 79.81 4.24 79.81 5.01 77.1 5.01 77.1 7.57 79.89 7.57 79.89 8.34 76.25 8.34 76.25 1.58"/><polygon class="cls-2" points="82.72 1.58 86.35 1.58 86.35 2.35 83.56 2.35 83.56 4.24 86.27 4.24 86.27 5.01 83.56 5.01 83.56 7.57 86.35 7.57 86.35 8.34 82.72 8.34 82.72 1.58"/><path class="cls-2" d="M27.21,19.13l-.77,1.7h-.91l3.23-7.05,3.23,7.05h-.91l-.77-1.7h-3.1ZM28.76,15.62l-1.2,2.74h2.4l-1.2-2.74Z"/><polygon class="cls-2" points="35.19 20.05 37.25 20.05 37.25 20.82 34.35 20.82 34.35 14.06 35.19 14.06 35.19 20.05"/><polygon class="cls-2" points="40.44 20.05 42.49 20.05 42.49 20.82 39.6 20.82 39.6 14.06 40.44 14.06 40.44 20.05"/><rect class="cls-2" x="44.82" y="14.06" width=".84" height="6.76"/><path class="cls-2" d="M49.68,19.13l-.77,1.7h-.91l3.23-7.05,3.23,7.05h-.91l-.77-1.7h-3.1ZM51.23,15.62l-1.2,2.74h2.4l-1.2-2.74Z"/><polygon class="cls-2" points="56.74 13.74 61.81 19.05 61.81 14.06 62.66 14.06 62.66 21.1 57.58 15.78 57.58 20.82 56.74 20.82 56.74 13.74"/><path class="cls-2" d="M70.58,15.35c-.48-.43-1.15-.66-1.78-.66-1.52,0-2.67,1.27-2.67,2.76s1.15,2.74,2.66,2.74c.66,0,1.3-.25,1.8-.7v1c-.52.31-1.18.48-1.78.48-1.93,0-3.53-1.53-3.53-3.49s1.61-3.56,3.6-3.56c.59,0,1.19.14,1.7.46v.98Z"/><polygon class="cls-2" points="73.37 14.06 77.01 14.06 77.01 14.83 74.22 14.83 74.22 16.72 76.93 16.72 76.93 17.49 74.22 17.49 74.22 20.05 77.01 20.05 77.01 20.82 73.37 20.82 73.37 14.06"/></svg>