<?xml version="1.0" encoding="UTF-8"?><svg id="Layer_2" xmlns="http://www.w3.org/2000/svg" viewBox="0 0 130.41 55.14"><defs><style>.cls-1{fill:#919191;}.cls-2{fill:#6c2383;}.cls-3{fill:#fff;}.cls-4{fill:#ffd500;}</style></defs><rect class="cls-2" x=".06" width="130.34" height="40.47"/><path class="cls-4" d="M83.65,28.93c1.8.74,2.6,1.54,2.6,2.74,0,1.63-1.47,2.89-3.37,2.89s-3.32-1.14-3.32-2.57c0-1.1.86-1.99,2.52-2.61-1.61-.66-2.38-1.43-2.38-2.49,0-1.38,1.42-2.54,3.14-2.54s3.08,1,3.08,2.26c0,1-.75,1.77-2.26,2.32M82.41,29.54c-1.17.58-1.87,1.4-1.87,2.42,0,1.33,1.04,2.21,2.35,2.21s2.35-.83,2.35-2.05c0-1.05-.84-1.74-2.82-2.57M82.8,24.74c-1.18,0-2.19.67-2.19,1.66,0,.86.48,1.46,2.71,2.32.96-.55,1.64-1.24,1.64-2.13,0-1.13-.96-1.85-2.16-1.85ZM93.44,31.58v-.36l4.97-6.78h.46v6.35h1.29v.79h-1.29v2.82h-1.11v-2.82h-4.33M97.77,25.97l-3.52,4.83h3.52v-4.83ZM74.65,34.4v-.38c1.48,0,1.55-.25,1.55-1.02h0v-7.3c-.53.44-1.45,1.02-2.06,1.29l-.13-.22c.96-.61,2.32-1.79,2.72-2.32h.58v8.34c.02,1.01.21,1.2,1.69,1.24v.38h-4.34ZM93.27,32.22h-.29c-.21.95-.49,1.2-1.27,1.21h-3.7c1.95-1.72,4.96-3.96,4.96-6.33,0-1.57-1.2-2.76-2.83-2.76s-2.96,1.22-3.15,2.99h.25c.36-1.26,1.34-2.11,2.45-2.11,1.17,0,2.06.92,2.06,2.09,0,2.8-4.55,6.24-4.96,6.63v.45h6.2s0,0,0,0h0l.13-.97h0l.16-1.21ZM83.69,12.43c-.25-1.63-.75-1.74-1.45-1.74h-4.41v4.8h3.45c.71,0,1.05-.09,1.14-1.23h.37v3.31h-.37c-.16-1.4-.53-1.31-1.34-1.31h-3.25v4.2c0,.91.42,1.08,1.15,1.08h2.96c1.36,0,1.8-.29,2.28-1.95h.36l-.31,2.66h-9.76v-.37c1.58-.04,1.69-.26,1.69-1.46v-8.61c0-1.2-.1-1.42-1.68-1.46v-.38h9.38s.15,2.46.15,2.46h-.36ZM92.35,12.02h8.38l.24,2.22h-.29c-.24-1.42-.54-1.61-1.19-1.61h-2.25v8.08c0,.87.29,1.18,1.28,1.18h.37v.34h-4.7v-.34h.37c.98,0,1.28-.31,1.28-1.18v-8.08h-2.25c-.65,0-.94.18-1.18,1.61h-.29l.23-2.23ZM86.43,13.76c0-.91.82-1.47,1.99-1.47s2.37.78,2.86,1.96h.29l-.23-1.75c-.61-.28-1.92-.69-3.07-.69-1.81,0-3.13,1.18-3.13,2.54,0,2.86,5.67,3.49,5.67,5.84,0,1.29-1.26,1.84-2.45,1.84-1.39,0-2.67-.84-3.04-2.46h-.31l.36,2.43c.92.26,2.17.55,3.16.55,2.08,0,3.59-1.34,3.59-2.94,0-3.01-5.68-3.54-5.68-5.86Z"/><path class="cls-3" d="M122.03,19.96l-1.57-1.5c-.93-.93-1.53-1.34-2.26-1.92,1.63-.48,2.64-1.73,2.64-3.21,0-2.02-1.65-3.53-5.32-3.53-1.29,0-1.69.02-2.5.06-.81.04-2.02.12-2.5.12v.38h.44c1.15,0,1.49.36,1.49,1.59v8.28c0,1.33-.42,1.65-1.59,1.65h-.34v.37h5.61v-.37h-.46c-1.11,0-1.59-.3-1.59-1.49v-3.29c.32.02.58.04,1.01.04.52,0,.84-.02,1.31-.04,1.51.87,2.69,2.2,3.39,2.86,1.81,1.72,2.23,2.44,5.7,2.29v-.37c-1.53-.1-2.31-.74-3.48-1.91ZM115.33,16.68c-.45,0-.75.02-1.23-.04v-6.34c.36-.04.62-.04.99-.04,3.06,0,3.89,1.34,3.89,3.19,0,2.38-1.45,3.23-3.65,3.23ZM122.03,19.96l-1.57-1.5c-.93-.93-1.53-1.34-2.26-1.92,1.63-.48,2.64-1.73,2.64-3.21,0-2.02-1.65-3.53-5.32-3.53-1.29,0-1.69.02-2.5.06-.81.04-2.02.12-2.5.12v.38h.44c1.15,0,1.49.36,1.49,1.59v8.28c0,1.33-.42,1.65-1.59,1.65h-.34v.37h5.61v-.37h-.46c-1.11,0-1.59-.3-1.59-1.49v-3.29c.32.02.58.04,1.01.04.52,0,.84-.02,1.31-.04,1.51.87,2.69,2.2,3.39,2.86,1.81,1.72,2.23,2.44,5.7,2.29v-.37c-1.53-.1-2.31-.74-3.48-1.91ZM115.33,16.68c-.45,0-.75.02-1.23-.04v-6.34c.36-.04.62-.04.99-.04,3.06,0,3.89,1.34,3.89,3.19,0,2.38-1.45,3.23-3.65,3.23ZM55.15,9.68c2.07,0,3.59.7,4.51,1.09l.15,2.44h-.38c-.65-1.84-2.02-3.04-4.17-3.04-3.29,0-4.94,2.55-4.94,5.86,0,3.57,2.16,5.98,5.16,5.98.9,0,3.15-.6,4.49-2.99h.37l-.94,2.32c-1.18.56-2.12,1.21-4.45,1.21-4.01,0-6.4-2.64-6.4-6.29s2.47-6.59,6.59-6.59ZM74.21,21.87v.37h-4.88v-.37c1.49-.04,1.67-.23,1.69-1.27v-4.35h-7.25v4.16h0c0,1.2.11,1.42,1.69,1.46v.37h-4.88v-.37c1.48,0,1.55-.26,1.55-1.03h0v-9.47h0c0-.77-.07-1.03-1.55-1.03v-.37h4.88v.37c-1.58.04-1.69.26-1.69,1.46h0v3.68s7.24,0,7.24,0v-3.85c0-1.05-.19-1.25-1.68-1.29v-.37h4.88v.37c-1.48,0-1.55.25-1.55,1.03h0v9.47h0c0,.77.07,1.03,1.55,1.03ZM44.31,9.97v.37c1.58.04,1.69.26,1.69,1.46v7.85l-8.24-9.69h-2.95v.37c.69.02,1.06.18,1.51.49v9.71c0,.75-.29,1.28-.95,1.28-.53,0-.77-.58-1.06-1.21l-4.59-10.65h-1.4l-4.24,9.94c-.76,1.65-.89,1.92-1.3,1.92-.51,0-.69-.46-.78-1.78l-.6-8.68c0-.77.23-1.03,1.71-1.03v-.37h-3.33l-4.34,9.96-4.36-9.96h-3.46v.37c1.48,0,1.72.25,1.72,1.03l-.53,8.39c-.1,1.79-.28,2.11-1.72,2.11v.37h4.11v-.37c-.89-.04-1.64-.26-1.58-1.26l.53-8.88h.04l4.63,10.51h.45l4.5-10.51h.04l.57,8.84c.08,1.05-.83,1.3-1.75,1.3v.37h7.62v-.37h-.07c-1.08,0-1.6-.2-1.6-.73,0-.28.26-.87.39-1.24l1.1-2.59h5.14l1.29,3.09c.08.2.22.49.22.81,0,.55-.41.67-1.54.67h-.27v.37h8.03v-.37c-1.68,0-1.75-.3-1.75-1.72v-8.46l9.17,10.69h.51v-11.01c0-.77.07-1.02,1.55-1.02v-.37h-4.13ZM26.4,16.54l2.26-5.36,2.24,5.36h-4.5ZM109.87,12.43l-.16-2.45h-9.38s0,.37,0,.37c1.58.04,1.69.25,1.69,1.46v8.61c0,1.2-.12,1.42-1.7,1.46v.37h9.76l.31-2.66h-.36c-.48,1.66-.92,1.95-2.28,1.95h-2.96c-.73,0-1.15-.18-1.15-1.08v-4.2h3.25c.81,0,1.19-.09,1.34,1.31h.37v-3.31h-.37c-.1,1.14-.44,1.23-1.14,1.23h-3.45v-4.8h4.41c.7,0,1.2.11,1.45,1.74h.36Z"/><path class="cls-1" d="M3.01,45.75v6.62h-.82v-6.62H0v-.69h5.21v.69h-2.2Z"/><path class="cls-1" d="M9.65,52.37v-3.49c0-.84-.23-1.33-1.01-1.33-.96,0-1.65.95-1.65,2.23v2.59h-.81v-7.91h.81v2.63c0,.36-.02.8-.09,1.07h.02c.31-.78.99-1.29,1.92-1.29,1.23,0,1.61.78,1.61,1.73v3.76h-.81Z"/><path class="cls-1" d="M16.15,49.51h-3.6c-.05,1.61.58,2.28,1.79,2.28.56,0,1.16-.14,1.56-.35l.08.69c-.5.21-1.1.33-1.78.33-1.62,0-2.49-.88-2.49-2.76,0-1.61.87-2.82,2.36-2.82s2.1,1.03,2.1,2.22c0,.1,0,.24-.02.4ZM14.02,47.51c-.76,0-1.3.55-1.43,1.4h2.73c.02-.83-.48-1.4-1.3-1.4Z"/><path class="cls-1" d="M22.31,52.47c-2.26,0-2.7-1.27-2.7-2.52v-4.88h.83v4.81c0,1.05.35,1.92,1.93,1.92,1.34,0,2-.56,2-2.12v-4.6h.81v4.54c0,1.87-.99,2.87-2.88,2.87Z"/><path class="cls-1" d="M30.25,52.37v-3.49c0-.84-.23-1.33-1.01-1.33-.96,0-1.65.95-1.65,2.23v2.59h-.81v-5.38h.8c0,.35-.03.87-.09,1.19h.02c.3-.77.99-1.3,1.93-1.3,1.23,0,1.61.78,1.61,1.73v3.76h-.81Z"/><path class="cls-1" d="M33.01,46.01c-.31,0-.56-.24-.56-.55s.25-.55.56-.55.56.25.56.55-.26.55-.56.55ZM32.6,52.37v-5.38h.81v5.38h-.81Z"/><path class="cls-1" d="M37.17,52.37h-.84l-2.04-5.38h.92l1.26,3.51c.11.34.21.64.3.95h.01c.09-.29.18-.62.29-.91l1.29-3.55h.89l-2.08,5.38Z"/><path class="cls-1" d="M43.89,49.51h-3.6c-.05,1.61.58,2.28,1.79,2.28.56,0,1.16-.14,1.56-.35l.08.69c-.5.21-1.1.33-1.78.33-1.62,0-2.49-.88-2.49-2.76,0-1.61.87-2.82,2.36-2.82s2.1,1.03,2.1,2.22c0,.1,0,.24-.02.4ZM41.77,47.51c-.76,0-1.3.55-1.43,1.4h2.73c.02-.83-.48-1.4-1.3-1.4Z"/><path class="cls-1" d="M47.78,47.69c-1.19-.19-1.75.71-1.75,2.52v2.16h-.81v-5.38h.8c0,.36-.04.89-.12,1.35h.01c.22-.78.78-1.58,1.91-1.45l-.03.8Z"/><path class="cls-1" d="M49.64,52.47c-.4,0-.81-.04-1.14-.11l.02-.75c.35.1.78.17,1.2.17.78,0,1.32-.35,1.32-.91,0-1.3-2.62-.49-2.62-2.4,0-.9.74-1.58,2.1-1.58.34,0,.71.05,1.05.12l-.02.7c-.36-.12-.75-.18-1.12-.18-.79,0-1.18.32-1.18.86,0,1.29,2.63.55,2.63,2.38,0,.95-.84,1.7-2.25,1.7Z"/><path class="cls-1" d="M53.55,46.01c-.31,0-.56-.24-.56-.55s.25-.55.56-.55.56.25.56.55-.26.55-.56.55ZM53.14,52.37v-5.38h.81v5.38h-.81Z"/><path class="cls-1" d="M57.31,52.46c-1.08,0-1.4-.48-1.4-1.59v-3.24h-1.17v-.64h1.17v-1.79l.81-.23v2.01h1.58v.64h-1.58v2.9c0,.96.17,1.21.81,1.21.27,0,.55-.03.77-.1v.7c-.28.06-.66.11-1,.11Z"/><path class="cls-1" d="M61.25,52.93c-.63,1.66-1.1,2.21-2.29,2.21-.19,0-.47-.02-.68-.05l.09-.75c.22.08.43.11.67.11.65,0,.97-.3,1.4-1.44l.25-.64-2.06-5.38h.93l1.13,3.09c.17.49.29.88.41,1.28h.01c.1-.35.32-1.02.54-1.64l.96-2.73h.89l-2.25,5.95Z"/><path class="cls-1" d="M68.37,52.47c-1.44,0-2.37-.88-2.37-2.76,0-1.54.95-2.82,2.57-2.82,1.31,0,2.38.73,2.38,2.7,0,1.6-.99,2.88-2.58,2.88ZM68.49,47.56c-.84,0-1.65.64-1.65,2.08s.6,2.13,1.65,2.13c.84,0,1.61-.65,1.61-2.13,0-1.3-.54-2.08-1.61-2.08Z"/><path class="cls-1" d="M75.31,45.19c-.27-.09-.56-.12-.84-.12-.82,0-1.19.48-1.19,1.52v.4h1.59v.64h-1.59v4.74h-.81v-4.74h-1.17v-.64h1.17v-.38c0-1.51.75-2.2,2.04-2.2.3,0,.6.03.89.1l-.08.68Z"/><path class="cls-1" d="M85.1,52.37l-.65-4.51c-.13-.89-.18-1.43-.23-1.83h-.02c-.08.3-.18.73-.36,1.22l-1.71,5.11h-.94l-1.62-4.79c-.18-.53-.38-1.1-.47-1.55h-.01c-.03.58-.11,1.17-.19,1.92l-.53,4.42h-.86l1.04-7.31h1.05l1.67,4.94c.18.53.34,1.02.41,1.42h.02c.11-.5.22-.82.4-1.34l1.71-5.01h1.08l1.08,7.31h-.88Z"/><path class="cls-1" d="M90.21,52.37c0-.41,0-.82.05-1.14h-.02c-.26.68-.95,1.23-1.87,1.23-.86,0-1.47-.46-1.47-1.31,0-1.13,1.17-1.91,3.27-1.91v-.44c0-.81-.29-1.27-1.22-1.27-.52,0-1.17.16-1.65.47l-.08-.71c.51-.23,1.14-.4,1.86-.4,1.48,0,1.91.74,1.91,1.75v2.11c0,.53,0,1.14.02,1.61h-.8ZM90.17,49.85c-2.02,0-2.46.64-2.46,1.16,0,.49.35.8.88.8.95,0,1.58-.94,1.58-1.87v-.09Z"/><path class="cls-1" d="M96,52.37v-3.49c0-.84-.23-1.33-1.01-1.33-.96,0-1.65.95-1.65,2.23v2.59h-.81v-5.38h.8c0,.35-.03.87-.09,1.19h.02c.3-.77.99-1.3,1.93-1.3,1.23,0,1.61.78,1.61,1.73v3.76h-.81Z"/><path class="cls-1" d="M100.39,52.44c-1.2,0-2.33-.53-2.33-2.57,0-1.77.89-2.96,2.64-2.96.44,0,.89.06,1.27.18l-.09.71c-.36-.14-.78-.24-1.23-.24-1.16,0-1.73.86-1.73,2.16,0,1.1.35,2.01,1.65,2.01.48,0,1-.12,1.35-.3l.08.7c-.36.14-.94.29-1.6.29Z"/><path class="cls-1" d="M106.58,52.37v-3.49c0-.84-.23-1.33-1.01-1.33-.96,0-1.65.95-1.65,2.23v2.59h-.81v-7.91h.81v2.63c0,.36-.02.8-.09,1.07h.02c.31-.78.99-1.29,1.92-1.29,1.23,0,1.61.78,1.61,1.73v3.76h-.81Z"/><path class="cls-1" d="M113.08,49.51h-3.6c-.05,1.61.58,2.28,1.79,2.28.56,0,1.16-.14,1.56-.35l.08.69c-.5.21-1.1.33-1.78.33-1.62,0-2.49-.88-2.49-2.76,0-1.61.87-2.82,2.36-2.82s2.1,1.03,2.1,2.22c0,.1,0,.24-.02.4ZM110.96,47.51c-.76,0-1.3.55-1.43,1.4h2.73c.02-.83-.48-1.4-1.3-1.4Z"/><path class="cls-1" d="M115.22,52.47c-.4,0-.81-.04-1.14-.11l.02-.75c.35.1.78.17,1.2.17.78,0,1.32-.35,1.32-.91,0-1.3-2.62-.49-2.62-2.4,0-.9.74-1.58,2.1-1.58.34,0,.71.05,1.05.12l-.02.7c-.36-.12-.75-.18-1.12-.18-.79,0-1.18.32-1.18.86,0,1.29,2.63.55,2.63,2.38,0,.95-.84,1.7-2.25,1.7Z"/><path class="cls-1" d="M120.43,52.46c-1.08,0-1.4-.48-1.4-1.59v-3.24h-1.17v-.64h1.17v-1.79l.81-.23v2.01h1.58v.64h-1.58v2.9c0,.96.17,1.21.81,1.21.27,0,.55-.03.77-.1v.7c-.28.06-.66.11-1,.11Z"/><path class="cls-1" d="M126.54,49.51h-3.6c-.05,1.61.58,2.28,1.79,2.28.56,0,1.16-.14,1.56-.35l.08.69c-.5.21-1.1.33-1.78.33-1.62,0-2.49-.88-2.49-2.76,0-1.61.87-2.82,2.36-2.82s2.1,1.03,2.1,2.22c0,.1,0,.24-.02.4ZM124.42,47.51c-.76,0-1.3.55-1.43,1.4h2.73c.02-.83-.48-1.4-1.3-1.4Z"/><path class="cls-1" d="M130.38,47.69c-1.19-.19-1.75.71-1.75,2.52v2.16h-.81v-5.38h.8c0,.36-.04.89-.12,1.35h.01c.22-.78.78-1.58,1.91-1.45l-.03.8Z"/></svg>