<?xml version="1.0" encoding="UTF-8"?><svg id="Layer_2" xmlns="http://www.w3.org/2000/svg" xmlns:xlink="http://www.w3.org/1999/xlink" viewBox="0 0 416.75 133.91"><defs><style>.cls-1{fill:none;}.cls-2{fill:url(#radial-gradient-5);}.cls-3{fill:url(#radial-gradient-4);}.cls-4{fill:url(#radial-gradient-3);}.cls-5{fill:url(#radial-gradient-2);}.cls-6{fill:url(#radial-gradient);}.cls-7{fill:url(#linear-gradient);}.cls-8{fill:#6b9505;}.cls-9{clip-path:url(#clippath-1);}.cls-10{clip-path:url(#clippath-3);}.cls-11{clip-path:url(#clippath-4);}.cls-12{clip-path:url(#clippath-2);}.cls-13{clip-path:url(#clippath-5);}.cls-14{clip-path:url(#clippath);}</style><clipPath id="clippath"><path class="cls-1" d="M0,57.66s0,.09,0,.13v.28c.04,4.23,1.87,9.93,6.54,14.58,1.57,1.61,3.44,2.95,5.51,4-1.27,6.5-1.77,13.96-.88,22.6l4.6-.25c-1.68-7.96-1.84-14.95-1.02-21.15,19.27,7.2,49.41-9.41,25.97-77.87C38.31,30.6.53,28.52,0,57.66"/></clipPath><linearGradient id="linear-gradient" x1="-34.62" y1="352.91" x2="-32.68" y2="352.91" gradientTransform="translate(-13425.03 1327.51) rotate(90) scale(38.13 -38.13)" gradientUnits="userSpaceOnUse"><stop offset="0" stop-color="#d3d100"/><stop offset=".03" stop-color="#d3d100"/><stop offset=".2" stop-color="#c2c700"/><stop offset=".52" stop-color="#95ad02"/><stop offset=".8" stop-color="#6b9505"/><stop offset="1" stop-color="#6b9505"/></linearGradient><clipPath id="clippath-1"><path class="cls-1" d="M0,57.66s0,.09,0,.13v.28c.04,4.23,1.87,9.93,6.54,14.58,1.57,1.61,3.44,2.95,5.51,4,1.02-5.28,2.56-9.95,4.35-14.09-3.11-4.92-6.37-14.49-6.19-21.13h0c1.34,5.7,4.38,13.33,7.35,18.5,2.38-4.93,5.16-9.34,7.98-13.63-3.15-4.74-3.96-12.54-3.9-14.07,0-.03.02-.03.05-.04.83,2.72,2.4,7.35,5.28,11.96,2.69-4.04,5.31-8.01,7.5-12.27-1.4-2.92-2.35-7.46-2.24-8.93.6,2,2.24,4.62,3.56,6.24,2.88-5.75,4.36-10.5,4.99-13.54.73-4.74.79-9.89-.05-15.66C38.31,30.6.53,28.52,0,57.66"/></clipPath><radialGradient id="radial-gradient" cx="-33.58" cy="353.16" fx="-33.58" fy="353.16" r="1.94" gradientTransform="translate(1996.75 21135.56) scale(59.89 -59.89)" gradientUnits="userSpaceOnUse"><stop offset="0" stop-color="#d5d830"/><stop offset=".19" stop-color="#d5d830"/><stop offset=".3" stop-color="#bcc826"/><stop offset=".51" stop-color="#90ac14"/><stop offset=".67" stop-color="#759b09"/><stop offset=".77" stop-color="#6b9505"/><stop offset="1" stop-color="#6b9505"/></radialGradient><clipPath id="clippath-2"><path class="cls-1" d="M29.47,57.66c-.07,4.27,1.73,10.19,6.54,15,16.41,16.42,61.37,6.83,34.19-72.66-2.39,30.6-40.2,28.52-40.73,57.66"/></clipPath><radialGradient id="radial-gradient-2" cx="-33.34" cy="353.16" fx="-33.34" fy="353.16" r="1.94" gradientTransform="translate(2011.86 21135.82) scale(59.89 -59.89)" gradientUnits="userSpaceOnUse"><stop offset="0" stop-color="#e4ecf7"/><stop offset=".13" stop-color="#e0eaf6"/><stop offset=".25" stop-color="#d5e4f3"/><stop offset=".36" stop-color="#c3daee"/><stop offset=".48" stop-color="#a9cce7"/><stop offset=".58" stop-color="#87bade"/><stop offset=".69" stop-color="#5ea4d3"/><stop offset=".8" stop-color="#2f8ac7"/><stop offset=".89" stop-color="#0071bb"/><stop offset="1" stop-color="#0071bb"/></radialGradient><clipPath id="clippath-3"><path class="cls-1" d="M29.47,57.66c-.07,4.27,1.73,10.19,6.54,15,.57.57,1.17,1.1,1.81,1.62,8.3-6.75,13.8-20.63,10.44-44.29-9.51,6.76-18.54,13.54-18.8,27.68"/></clipPath><radialGradient id="radial-gradient-3" cx="-33.35" cy="353.15" fx="-33.35" fy="353.15" r="1.94" gradientTransform="translate(2012.65 21136.63) scale(59.89 -59.89)" gradientUnits="userSpaceOnUse"><stop offset="0" stop-color="#fff"/><stop offset=".05" stop-color="#e8eef6"/><stop offset=".1" stop-color="#d4e0ef"/><stop offset=".17" stop-color="#c5d5e9"/><stop offset=".25" stop-color="#bdcfe6"/><stop offset=".38" stop-color="#bbcee6"/><stop offset=".47" stop-color="#8eb7db"/><stop offset=".63" stop-color="#4291ca"/><stop offset=".74" stop-color="#127abf"/><stop offset=".8" stop-color="#0071bb"/><stop offset="1" stop-color="#0071bb"/></radialGradient><clipPath id="clippath-4"><path class="cls-1" d="M59.29,57.66c-.09,4.27,1.7,10.19,6.53,15,16.4,16.42,61.37,6.83,34.17-72.66-2.39,30.6-40.19,28.52-40.69,57.66"/></clipPath><radialGradient id="radial-gradient-4" cx="-33.1" cy="353.15" fx="-33.1" fy="353.15" r="1.94" gradientTransform="translate(2027.46 21135.33) scale(59.89 -59.89)" gradientUnits="userSpaceOnUse"><stop offset="0" stop-color="#ffec00"/><stop offset=".14" stop-color="#ffec00"/><stop offset=".16" stop-color="#fee600"/><stop offset=".26" stop-color="#fdd400"/><stop offset=".37" stop-color="#fcca00"/><stop offset=".5" stop-color="#fcc700"/><stop offset=".79" stop-color="#f39b00"/><stop offset=".95" stop-color="#ef8700"/><stop offset="1" stop-color="#ef8700"/></radialGradient><clipPath id="clippath-5"><path class="cls-1" d="M59.29,57.66c-.09,4.27,1.7,10.19,6.53,15,.51.52,1.05,1.03,1.63,1.48,8.2-6.78,13.6-20.57,10.32-43.93-9.4,6.69-18.25,13.46-18.47,27.45"/></clipPath><radialGradient id="radial-gradient-5" cx="-33.11" cy="353.15" fx="-33.11" fy="353.15" r="1.94" gradientTransform="translate(2027.77 21134.36) scale(59.88 -59.88)" gradientUnits="userSpaceOnUse"><stop offset="0" stop-color="#ffe800"/><stop offset="0" stop-color="#fee600"/><stop offset=".08" stop-color="#fad200"/><stop offset=".17" stop-color="#f7c300"/><stop offset=".27" stop-color="#f5bb00"/><stop offset=".45" stop-color="#f5b900"/><stop offset=".51" stop-color="#f3ab00"/><stop offset=".62" stop-color="#f09700"/><stop offset=".74" stop-color="#ef8b00"/><stop offset=".85" stop-color="#ef8700"/><stop offset="1" stop-color="#ef8700"/></radialGradient></defs><g id="Layer_1-2"><g class="cls-14"><rect class="cls-7" x="-21.89" y="-9.46" width="107.94" height="118.19" transform="translate(-21.89 25.56) rotate(-33.09)"/></g><g class="cls-9"><rect class="cls-6" width="41.57" height="76.66"/></g><g class="cls-12"><rect class="cls-5" x="29.4" width="67.98" height="89.08"/></g><g class="cls-10"><rect class="cls-4" x="29.4" y="29.99" width="22.22" height="44.29"/></g><g class="cls-11"><rect class="cls-3" x="59.21" width="67.98" height="89.08"/></g><g class="cls-13"><rect class="cls-2" x="59.21" y="30.21" width="21.84" height="43.93"/></g><path class="cls-8" d="M268.28,110.65c0-4.46-3.57-9.78-10.33-9.78h-14.49v32.58h6.71v-28.15h5.29c5.09,0,5.85,3.84,5.85,5.65,0,3.01-1.12,5.54-5.71,5.54-2.34,0-3.27.46-3.38,1.79-.1,1.25,1.4,1.95,2.91,2.24,6.68,1.27,13.15-2.73,13.15-9.87"/><path class="cls-8" d="M406.97,118.43c2.47-.74,6.75-2.87,6.75-8.58,0-4.46-3.52-8.97-10.29-8.97h-14.49v32.58h6.7v-28.15h5.29c5.08,0,5.83,3.03,5.83,4.83,0,3.01-2.15,4.9-5.63,4.9-2.25,0-3.55.87-3.55,2.36,0,.85.54,1.92,3.03,2.31,3.08.48,4.32,3.49,5.89,7.27,0,0,1.35,3.2,1.81,4.24.47,1.03.89,2.24,3.2,2.24h5.25l-2.32-4.97c-2.3-5.12-4.13-8.15-7.46-10.06"/><polygon class="cls-8" points="366.64 118.86 382.32 118.86 382.32 114.42 366.64 114.42 366.64 105.31 383.13 105.31 383.13 100.89 359.93 100.89 359.93 133.46 383.46 133.46 383.46 129.02 366.64 129.02 366.64 118.86"/><path class="cls-8" d="M287.91,100.43c-12.06,0-17.45,8.42-17.45,16.74s5.39,16.75,17.45,16.75,17.37-8.67,17.37-16.75-5.36-16.74-17.37-16.74M287.91,128.63c-6.68,0-10.49-4.18-10.49-11.47s3.81-11.45,10.49-11.45,10.42,4.17,10.42,11.45-3.79,11.47-10.42,11.47"/><path class="cls-8" d="M352.99,100.89c-2.26,0-2.52,1.19-2.85,2.23l-7.37,23.8-7.36-26.04h-6.1c-2.18,0-2.51,1.12-2.82,2.12l-7.05,24.05-6.98-26.18h-7.42l9.55,32.62h8.62l7.58-25.7,7.25,25.7h8.51l9.94-32.62h-3.48Z"/><path class="cls-8" d="M25.84,131.09l.27-4.72c3.16,1.44,7.03,2.28,9.07,2.23,1.9-.06,7.06.08,6.8-4.37-.33-5.64-16.08-4.55-16.08-14.7,0-7.03,7.36-9.48,13.32-9.48,2.24,0,5.47.59,7.56,1.25l-.13,2.24c0,1.27-1.19,2.03-2.42,1.79-1.7-.34-3.47-.48-4.96-.42-1.93.08-6.56.37-6.33,3.82.34,5.03,16.34,4.22,16.34,15.48,0,6.81-6.69,9.34-13.83,9.34-2.55,0-6.64-.85-9.61-2.43"/><path class="cls-8" d="M69.25,104.93c2.22-.07,3.71.07,4.93.32,1.44.29,2.46-.44,2.52-1.74l.13-2.22c-1.97-.62-4.89-1.25-7.98-1.25-12.06,0-17.45,8.42-17.45,16.74s5.39,16.74,17.45,16.74c3.1,0,6.01-.63,7.98-1.25l-.27-4.63c-1.9.63-3.52,1.1-7.31.98-6.67-.2-10.9-4.56-10.9-11.84s4.23-11.64,10.9-11.84"/><path class="cls-8" d="M95.07,100.04c-12.06,0-17.45,8.42-17.45,16.74s5.39,16.75,17.45,16.75,17.37-8.67,17.37-16.75-5.36-16.74-17.37-16.74M95.07,128.24c-6.69,0-10.5-4.19-10.5-11.47s3.81-11.45,10.5-11.45,10.42,4.17,10.42,11.45-3.79,11.47-10.42,11.47"/><rect class="cls-8" x="166.61" y="100.88" width="6.71" height="32.56"/><polygon class="cls-8" points="136.15 100.88 112 100.88 112 105.31 120.99 105.31 120.99 133.44 127.7 133.44 127.7 105.31 136.15 105.31 136.15 100.88"/><polygon class="cls-8" points="162.65 100.88 138.5 100.88 138.5 105.31 147.49 105.31 147.49 133.44 154.2 133.44 154.2 105.31 162.65 105.31 162.65 100.88"/><polygon class="cls-8" points="229.34 100.88 229.34 114.39 213.88 114.39 213.88 100.88 207.17 100.88 207.17 133.44 213.88 133.44 213.88 118.82 229.34 118.82 229.34 133.44 236.05 133.44 236.05 100.88 229.34 100.88"/><path class="cls-8" d="M179.19,131.09l.27-4.72c3.16,1.44,7.03,2.28,9.07,2.23,1.9-.06,7.06.08,6.8-4.37-.33-5.64-16.08-4.55-16.08-14.7,0-7.03,7.36-9.48,13.31-9.48,2.25,0,5.47.59,7.56,1.25l-.13,2.24c0,1.27-1.19,2.03-2.42,1.79-1.7-.34-3.47-.48-4.96-.42-1.93.08-6.56.37-6.33,3.82.33,5.03,16.34,4.22,16.34,15.48,0,6.81-6.7,9.34-13.83,9.34-2.55,0-6.63-.85-9.6-2.43"/></g></svg>