<?xml version="1.0" encoding="UTF-8" standalone="no"?>
<!-- Created with Inkscape (http://www.inkscape.org/) -->

<svg
   xmlns:dc="http://purl.org/dc/elements/1.1/"
   xmlns:cc="http://creativecommons.org/ns#"
   xmlns:rdf="http://www.w3.org/1999/02/22-rdf-syntax-ns#"
   xmlns:svg="http://www.w3.org/2000/svg"
   xmlns="http://www.w3.org/2000/svg"
   xmlns:sodipodi="http://sodipodi.sourceforge.net/DTD/sodipodi-0.dtd"
   xmlns:inkscape="http://www.inkscape.org/namespaces/inkscape"
   width="44.999985mm"
   height="19.012251mm"
   viewBox="0 0 44.999985 19.012251"
   version="1.1"
   id="svg2495"
   inkscape:version="0.92.0 r15299"
   sodipodi:docname="severn trent.svg">
  <defs
     id="defs2489">
    <clipPath
       id="clipPath2333"
       clipPathUnits="userSpaceOnUse">
      <path
         inkscape:connector-curvature="0"
         id="path2331"
         d="M 0,0 H 595.276 V 841.89 H 0 Z" />
    </clipPath>
    <clipPath
       id="clipPath2313"
       clipPathUnits="userSpaceOnUse">
      <path
         inkscape:connector-curvature="0"
         id="path2311"
         d="M 0,0 H 595.276 V 841.89 H 0 Z" />
    </clipPath>
    <clipPath
       id="clipPath2289"
       clipPathUnits="userSpaceOnUse">
      <path
         inkscape:connector-curvature="0"
         id="path2287"
         d="M 0,0 H 595.276 V 841.89 H 0 Z" />
    </clipPath>
  </defs>
  <sodipodi:namedview
     id="base"
     pagecolor="#ffffff"
     bordercolor="#666666"
     borderopacity="1.0"
     inkscape:pageopacity="0.0"
     inkscape:pageshadow="2"
     inkscape:zoom="5.2740297"
     inkscape:cx="85.03934"
     inkscape:cy="35.928661"
     inkscape:document-units="mm"
     inkscape:current-layer="layer1"
     showgrid="false"
     fit-margin-top="0"
     fit-margin-left="0"
     fit-margin-right="0"
     fit-margin-bottom="0"
     inkscape:window-width="1280"
     inkscape:window-height="744"
     inkscape:window-x="-4"
     inkscape:window-y="-4"
     inkscape:window-maximized="1" />
  <metadata
     id="metadata2492">
    <rdf:RDF>
      <cc:Work
         rdf:about="">
        <dc:format>image/svg+xml</dc:format>
        <dc:type
           rdf:resource="http://purl.org/dc/dcmitype/StillImage" />
        <dc:title></dc:title>
      </cc:Work>
    </rdf:RDF>
  </metadata>
  <g
     inkscape:label="Layer 1"
     inkscape:groupmode="layer"
     id="layer1"
     transform="translate(-78.041676,-155.95816)">
    <g
       id="g2615">
      <path
         inkscape:connector-curvature="0"
         id="path2277"
         style="fill:#ffffff;fill-opacity:1;fill-rule:nonzero;stroke:none;stroke-width:0.35277778"
         d="M 123.04166,174.97041 H 78.041676 v -19.01225 h 44.999984 z" />
      <path
         inkscape:connector-curvature="0"
         id="path2279"
         style="fill:#23346a;fill-opacity:1;fill-rule:nonzero;stroke:none;stroke-width:0.35277778"
         d="m 78.832256,156.8581 h 43.419884 v 8.26346 H 78.832256 Z" />
      <path
         inkscape:connector-curvature="0"
         id="path2281"
         style="fill:#009340;fill-opacity:1;fill-rule:nonzero;stroke:none;stroke-width:0.35277778"
         d="m 78.832256,165.91108 h 43.419884 v 8.26346 H 78.832256 Z" />
      <path
         d="m 86.719062,162.99288 h -1.468261 c -0.754239,0 -1.524706,-0.12594 -1.524706,-1.0608 v -0.28575 -0.073 h 0.07267 0.496358 0.07303 v 0.073 0.27516 c 0,0.31257 0.129469,0.49354 0.790575,0.49354 h 1.641122 c 0.781756,0 0.92075,-0.17039 0.92075,-0.65017 0,-0.41381 -0.107597,-0.54257 -0.780344,-0.54257 H 85.93625 c -1.608667,0 -2.21615,-0.10372 -2.21615,-1.2065 0,-0.97296 0.620536,-1.16311 1.692628,-1.16311 h 1.138767 c 1.249538,0 1.714147,0.29916 1.714147,1.10349 v 0.13547 0.0727 h -0.07303 -0.496711 -0.07126 l -0.0014,-0.0716 c -0.0095,-0.54857 -0.01164,-0.66251 -1.389944,-0.66251 h -0.561269 c -1.044223,0 -1.309159,0.061 -1.309159,0.62336 0,0.39758 0.07726,0.54821 0.898878,0.54821 h 1.565275 c 1.062214,0 1.535642,0.31856 1.535642,1.03364 v 0.25365 c 0,1.10384 -1.0287,1.10384 -1.643592,1.10384"
         style="fill:#ffffff;fill-opacity:1;fill-rule:nonzero;stroke:none;stroke-width:0.35277778"
         id="path2293"
         inkscape:connector-curvature="0" />
      <path
         d="m 93.716471,162.94967 h -0.07303 -3.859389 -0.07303 v -0.073 -3.90808 -0.0727 h 0.07303 3.83787 0.07303 v 0.0727 0.4318 0.073 h -0.07303 -3.236031 v 1.10102 h 3.106561 0.07303 v 0.073 0.43216 0.0727 h -0.07303 -3.106561 v 1.21955 h 3.25755 0.07303 v 0.073 0.4318 z"
         style="fill:#ffffff;fill-opacity:1;fill-rule:nonzero;stroke:none;stroke-width:0.35277778"
         id="path2297"
         inkscape:connector-curvature="0" />
      <path
         d="m 97.723348,162.94967 h -0.04304 -0.6477 -0.04304 l -0.02081,-0.0377 -2.164644,-3.90772 -0.05997,-0.1083 h 0.123825 0.594077 0.04304 l 0.02081,0.0377 1.830564,3.31717 1.830917,-3.31717 0.02081,-0.0377 h 0.04304 0.594077 0.123473 l -0.05962,0.1083 -2.164997,3.90772 z"
         style="fill:#ffffff;fill-opacity:1;fill-rule:nonzero;stroke:none;stroke-width:0.35277778"
         id="path2301"
         inkscape:connector-curvature="0" />
      <path
         d="m 105.12708,162.94967 h -0.073 -3.85939 -0.073 v -0.073 -3.90808 -0.073 h 0.073 3.83751 0.073 v 0.073 0.4318 0.073 h -0.073 -3.23567 v 1.10102 h 3.1062 0.073 v 0.073 0.4318 0.0727 h -0.073 -3.1062 v 1.21991 h 3.25755 0.073 v 0.0734 0.43145 z"
         style="fill:#ffffff;fill-opacity:1;fill-rule:nonzero;stroke:none;stroke-width:0.35277778"
         id="path2305"
         inkscape:connector-curvature="0" />
      <path
         d="m 110.92413,162.9497 h -0.0734 -0.49636 -0.073 v -0.073 -0.85796 c 0,-0.5274 -0.20743,-0.61278 -0.7045,-0.61278 h -2.50719 v 1.47074 0.073 h -0.073 -0.52882 -0.073 v -0.073 -3.90808 -0.073 h 0.073 3.12526 c 1.16593,0 1.37936,0.39758 1.37936,1.17969 v 0.31856 c 0,0.48189 -0.23671,0.67556 -0.49495,0.75741 0.30657,0.12665 0.44662,0.35877 0.44662,0.72672 v 0.99872 z m -3.85445,-2.12161 h 2.46415 c 0.63606,0 0.76377,-0.18908 0.76377,-0.49353 v -0.35631 c 0,-0.34325 -0.0882,-0.50482 -0.89324,-0.50482 h -2.33468 z"
         style="fill:#ffffff;fill-opacity:1;fill-rule:nonzero;stroke:none;stroke-width:0.35277778"
         id="path2317"
         inkscape:connector-curvature="0" />
      <path
         d="m 117.36427,162.94954 h -0.0727 -0.78811 -0.0293 l -0.0212,-0.0201 -3.45582,-3.31505 v 3.26249 0.0727 h -0.073 -0.52881 -0.0727 v -0.0727 -3.90843 -0.0727 h 0.0727 0.7881 0.0293 l 0.0212,0.0201 3.45546,3.31505 v -3.26249 -0.0727 h 0.073 0.52917 0.0727 v 0.0727 3.90843 z"
         style="fill:#ffffff;fill-opacity:1;fill-rule:nonzero;stroke:none;stroke-width:0.35277778"
         id="path2321"
         inkscape:connector-curvature="0" />
      <path
         d="m 89.294754,172.00298 h -0.07303 -0.528814 -0.07303 v -0.073 -3.40325 h -1.90253 -0.07303 v -0.0727 -0.43216 -0.0727 h 0.07303 4.480277 0.07303 v 0.0727 0.43216 0.0727 h -0.07303 -1.902883 v 3.40325 z"
         style="fill:#ffffff;fill-opacity:1;fill-rule:nonzero;stroke:none;stroke-width:0.35277778"
         id="path2325"
         inkscape:connector-curvature="0" />
      <path
         d="m 96.974594,172.003 h -0.07303 -0.496358 -0.07267 v -0.073 -0.85796 c 0,-0.52776 -0.208138,-0.61313 -0.704497,-0.61313 H 93.12085 v 1.47109 0.073 h -0.07303 -0.528814 -0.07303 v -0.073 -3.90808 -0.0727 h 0.07303 3.125258 c 1.165931,0 1.379008,0.39723 1.379008,1.17934 v 0.31856 c 0,0.48189 -0.236361,0.67592 -0.4953,0.75776 0.306564,0.1263 0.446617,0.35842 0.446617,0.72637 v 0.99872 z m -3.853744,-2.12125 h 2.464152 c 0.635706,0 0.763764,-0.18909 0.763764,-0.49389 v -0.35666 c 0,-0.34255 -0.08855,-0.50447 -0.893586,-0.50447 h -2.33433 z"
         style="fill:#ffffff;fill-opacity:1;fill-rule:nonzero;stroke:none;stroke-width:0.35277778"
         id="path2337"
         inkscape:connector-curvature="0" />
      <path
         d="m 102.39383,172.00298 h -0.0727 -3.859391 -0.07303 v -0.073 -3.90808 -0.0727 h 0.07303 3.837521 0.073 v 0.0727 0.43216 0.0727 h -0.073 -3.236035 v 1.10102 h 3.106565 0.073 v 0.073 0.4318 0.073 h -0.073 -3.106565 v 1.21955 h 3.257905 0.0727 v 0.073 0.4318 z"
         style="fill:#ffffff;fill-opacity:1;fill-rule:nonzero;stroke:none;stroke-width:0.35277778"
         id="path2341"
         inkscape:connector-curvature="0" />
      <path
         d="m 108.70374,172.00313 h -0.073 -0.78776 -0.0293 l -0.0215,-0.0205 -3.45546,-3.3147 v 3.26249 0.0727 h -0.0727 -0.52916 -0.0727 v -0.0727 -3.90843 -0.073 h 0.0727 0.7881 0.0293 l 0.0212,0.0205 3.45546,3.31505 v -3.26249 -0.073 h 0.073 0.52882 0.073 v 0.073 3.90843 z"
         style="fill:#ffffff;fill-opacity:1;fill-rule:nonzero;stroke:none;stroke-width:0.35277778"
         id="path2345"
         inkscape:connector-curvature="0" />
      <path
         d="m 112.5348,172.00298 h -0.073 -0.52917 -0.0727 v -0.073 -3.40325 h -1.90289 -0.073 v -0.073 -0.4318 -0.073 h 0.073 4.48063 0.0727 v 0.073 0.4318 0.073 h -0.0727 -1.90288 v 3.40325 z"
         style="fill:#ffffff;fill-opacity:1;fill-rule:nonzero;stroke:none;stroke-width:0.35277778"
         id="path2349"
         inkscape:connector-curvature="0" />
    </g>
  </g>
</svg>
